G04 Layer_Physical_Order=2*
G04 Layer_Color=16711680*
%FSLAX25Y25*%
%MOIN*%
G70*
G01*
G75*
%ADD11R,0.03150X0.02362*%
%ADD12R,0.02362X0.03150*%
%ADD33C,0.01000*%
%ADD34C,0.02000*%
%ADD42C,0.16000*%
%ADD43O,0.06299X0.03543*%
%ADD44C,0.03937*%
%ADD45C,0.09449*%
%ADD46C,0.06402*%
%ADD47C,0.02400*%
G36*
X235039Y244301D02*
Y244301D01*
X235537Y244296D01*
X236855Y244166D01*
X238601Y243637D01*
X240209Y242777D01*
X241620Y241620D01*
X242777Y240209D01*
X243637Y238601D01*
X244166Y236855D01*
X244296Y235537D01*
X244301Y235039D01*
D01*
X244301Y234545D01*
Y62308D01*
X244301Y62305D01*
X244301Y61811D01*
X244296Y61313D01*
X244166Y59996D01*
X243637Y58250D01*
X242777Y56641D01*
X241620Y55231D01*
X240209Y54074D01*
X238601Y53214D01*
X236855Y52684D01*
X235187Y52520D01*
X235039Y52549D01*
X61811D01*
X61664Y52520D01*
X59996Y52684D01*
X58250Y53214D01*
X56641Y54074D01*
X55231Y55231D01*
X54074Y56641D01*
X53214Y58250D01*
X52684Y59996D01*
X52520Y61664D01*
X52549Y61811D01*
Y235039D01*
X52520Y235187D01*
X52684Y236855D01*
X53214Y238601D01*
X54074Y240209D01*
X55231Y241620D01*
X56641Y242777D01*
X58250Y243637D01*
X59996Y244166D01*
X61313Y244296D01*
X61811Y244301D01*
Y244301D01*
X61811Y244301D01*
X234545D01*
X235039Y244301D01*
D02*
G37*
%LPC*%
G36*
X187404Y94837D02*
X186307Y94693D01*
X185285Y94269D01*
X184408Y93596D01*
X183735Y92718D01*
X183311Y91697D01*
X183167Y90600D01*
X183311Y89503D01*
X183735Y88481D01*
X184408Y87604D01*
X185285Y86931D01*
X186307Y86507D01*
X187404Y86363D01*
X188501Y86507D01*
X189523Y86931D01*
X190400Y87604D01*
X191073Y88481D01*
X191497Y89503D01*
X191641Y90600D01*
X191497Y91697D01*
X191073Y92718D01*
X190400Y93596D01*
X189523Y94269D01*
X188501Y94693D01*
X187404Y94837D01*
D02*
G37*
G36*
X142772Y94967D02*
X136867D01*
X136477Y94889D01*
X136146Y94668D01*
X135925Y94337D01*
X135847Y93947D01*
Y88607D01*
X135810Y88578D01*
X135744Y88503D01*
X135717Y88483D01*
X135697Y88456D01*
X135622Y88390D01*
X134864Y87403D01*
X134820Y87313D01*
X134800Y87287D01*
X134787Y87256D01*
X134731Y87173D01*
X134255Y86023D01*
X134236Y85925D01*
X134223Y85894D01*
X134219Y85861D01*
X134186Y85766D01*
X134024Y84533D01*
X134030Y84433D01*
X134026Y84400D01*
X134030Y84367D01*
X134024Y84267D01*
X134186Y83034D01*
X134219Y82938D01*
X134223Y82906D01*
X134236Y82875D01*
X134255Y82776D01*
X134731Y81627D01*
X134787Y81544D01*
X134800Y81513D01*
X134820Y81487D01*
X134864Y81397D01*
X135622Y80410D01*
X135697Y80344D01*
X135717Y80317D01*
X135744Y80297D01*
X135810Y80222D01*
X136797Y79464D01*
X136887Y79420D01*
X136913Y79400D01*
X136944Y79387D01*
X137027Y79331D01*
X138177Y78855D01*
X138275Y78836D01*
X138306Y78823D01*
X138338Y78819D01*
X138434Y78786D01*
X139667Y78624D01*
X139734Y78628D01*
X139800Y78615D01*
X139866Y78628D01*
X139933Y78624D01*
X141166Y78786D01*
X141261Y78819D01*
X141294Y78823D01*
X141325Y78836D01*
X141423Y78855D01*
X142573Y79331D01*
X142656Y79387D01*
X142687Y79400D01*
X142713Y79420D01*
X142803Y79464D01*
X143790Y80222D01*
X143856Y80297D01*
X143883Y80317D01*
X143903Y80344D01*
X143978Y80410D01*
X144736Y81397D01*
X144780Y81487D01*
X144800Y81513D01*
X144813Y81544D01*
X144869Y81627D01*
X145345Y82776D01*
X145364Y82875D01*
X145377Y82906D01*
X145381Y82938D01*
X145414Y83034D01*
X145576Y84267D01*
X145570Y84367D01*
X145574Y84400D01*
X145570Y84433D01*
X145576Y84533D01*
X145414Y85766D01*
X145381Y85861D01*
X145377Y85894D01*
X145364Y85925D01*
X145345Y86023D01*
X144869Y87173D01*
X144813Y87256D01*
X144800Y87287D01*
X144780Y87313D01*
X144736Y87403D01*
X143978Y88390D01*
X143903Y88456D01*
X143883Y88483D01*
X143856Y88503D01*
X143792Y88576D01*
Y93947D01*
X143714Y94337D01*
X143493Y94668D01*
X143163Y94889D01*
X142772Y94967D01*
D02*
G37*
G36*
X120332D02*
X114426D01*
X114036Y94889D01*
X113705Y94668D01*
X113484Y94337D01*
X113406Y93947D01*
Y88652D01*
X113310Y88578D01*
X113244Y88503D01*
X113217Y88483D01*
X113197Y88456D01*
X113122Y88390D01*
X112364Y87403D01*
X112320Y87313D01*
X112300Y87287D01*
X112287Y87256D01*
X112231Y87173D01*
X111755Y86023D01*
X111736Y85925D01*
X111723Y85894D01*
X111719Y85861D01*
X111686Y85766D01*
X111524Y84533D01*
X111530Y84433D01*
X111526Y84400D01*
X111530Y84367D01*
X111524Y84267D01*
X111686Y83034D01*
X111719Y82938D01*
X111723Y82906D01*
X111736Y82875D01*
X111755Y82776D01*
X112231Y81627D01*
X112287Y81544D01*
X112300Y81513D01*
X112320Y81487D01*
X112364Y81397D01*
X113122Y80410D01*
X113197Y80344D01*
X113217Y80317D01*
X113244Y80297D01*
X113310Y80222D01*
X114297Y79464D01*
X114387Y79420D01*
X114413Y79400D01*
X114444Y79387D01*
X114527Y79331D01*
X115676Y78855D01*
X115775Y78836D01*
X115806Y78823D01*
X115839Y78819D01*
X115934Y78786D01*
X117167Y78624D01*
X117234Y78628D01*
X117300Y78615D01*
X117366Y78628D01*
X117433Y78624D01*
X118666Y78786D01*
X118762Y78819D01*
X118794Y78823D01*
X118825Y78836D01*
X118923Y78855D01*
X120073Y79331D01*
X120156Y79387D01*
X120187Y79400D01*
X120213Y79420D01*
X120303Y79464D01*
X121290Y80222D01*
X121356Y80297D01*
X121383Y80317D01*
X121403Y80344D01*
X121478Y80410D01*
X122236Y81397D01*
X122280Y81487D01*
X122300Y81513D01*
X122313Y81544D01*
X122369Y81627D01*
X122845Y82776D01*
X122864Y82875D01*
X122877Y82906D01*
X122881Y82938D01*
X122914Y83034D01*
X123076Y84267D01*
X123070Y84367D01*
X123074Y84400D01*
X123070Y84433D01*
X123076Y84533D01*
X122914Y85766D01*
X122881Y85861D01*
X122877Y85894D01*
X122864Y85925D01*
X122845Y86023D01*
X122369Y87173D01*
X122313Y87256D01*
X122300Y87287D01*
X122280Y87313D01*
X122236Y87403D01*
X121478Y88390D01*
X121403Y88456D01*
X121383Y88483D01*
X121356Y88503D01*
X121351Y88509D01*
Y93947D01*
X121274Y94337D01*
X121053Y94668D01*
X120722Y94889D01*
X120332Y94967D01*
D02*
G37*
G36*
X238900Y94837D02*
X237803Y94693D01*
X236782Y94269D01*
X235904Y93596D01*
X235231Y92718D01*
X234807Y91697D01*
X234663Y90600D01*
X234807Y89503D01*
X235231Y88481D01*
X235904Y87604D01*
X236782Y86931D01*
X237803Y86507D01*
X238900Y86363D01*
X239997Y86507D01*
X241019Y86931D01*
X241896Y87604D01*
X242569Y88481D01*
X242993Y89503D01*
X243137Y90600D01*
X242993Y91697D01*
X242569Y92718D01*
X241896Y93596D01*
X241019Y94269D01*
X239997Y94693D01*
X238900Y94837D01*
D02*
G37*
G36*
Y114837D02*
X237803Y114693D01*
X236782Y114269D01*
X235904Y113596D01*
X235231Y112718D01*
X234807Y111697D01*
X234663Y110600D01*
X234807Y109503D01*
X235231Y108482D01*
X235904Y107604D01*
X236782Y106931D01*
X237803Y106507D01*
X238900Y106363D01*
X239997Y106507D01*
X241019Y106931D01*
X241896Y107604D01*
X242569Y108482D01*
X242993Y109503D01*
X243137Y110600D01*
X242993Y111697D01*
X242569Y112718D01*
X241896Y113596D01*
X241019Y114269D01*
X239997Y114693D01*
X238900Y114837D01*
D02*
G37*
G36*
Y104837D02*
X237803Y104693D01*
X236782Y104269D01*
X235904Y103596D01*
X235231Y102718D01*
X234807Y101697D01*
X234663Y100600D01*
X234807Y99503D01*
X235231Y98482D01*
X235904Y97604D01*
X236782Y96931D01*
X237803Y96507D01*
X238900Y96363D01*
X239997Y96507D01*
X241019Y96931D01*
X241896Y97604D01*
X242569Y98482D01*
X242993Y99503D01*
X243137Y100600D01*
X242993Y101697D01*
X242569Y102718D01*
X241896Y103596D01*
X241019Y104269D01*
X239997Y104693D01*
X238900Y104837D01*
D02*
G37*
G36*
X187404D02*
X186307Y104693D01*
X185285Y104269D01*
X184408Y103596D01*
X183735Y102718D01*
X183311Y101697D01*
X183167Y100600D01*
X183311Y99503D01*
X183735Y98482D01*
X184408Y97604D01*
X185285Y96931D01*
X186307Y96507D01*
X187404Y96363D01*
X188501Y96507D01*
X189523Y96931D01*
X190400Y97604D01*
X191073Y98482D01*
X191497Y99503D01*
X191641Y100600D01*
X191497Y101697D01*
X191073Y102718D01*
X190400Y103596D01*
X189523Y104269D01*
X188501Y104693D01*
X187404Y104837D01*
D02*
G37*
G36*
X139800Y70185D02*
X139734Y70172D01*
X139667Y70176D01*
X138434Y70014D01*
X138338Y69981D01*
X138306Y69977D01*
X138275Y69964D01*
X138177Y69945D01*
X137027Y69469D01*
X136944Y69413D01*
X136913Y69400D01*
X136887Y69380D01*
X136797Y69336D01*
X135810Y68578D01*
X135744Y68503D01*
X135717Y68483D01*
X135697Y68456D01*
X135622Y68390D01*
X134864Y67403D01*
X134820Y67313D01*
X134800Y67287D01*
X134787Y67256D01*
X134731Y67173D01*
X134255Y66023D01*
X134236Y65925D01*
X134223Y65894D01*
X134219Y65861D01*
X134186Y65766D01*
X134024Y64533D01*
X134030Y64433D01*
X134026Y64400D01*
X134030Y64367D01*
X134024Y64267D01*
X134186Y63034D01*
X134219Y62938D01*
X134223Y62906D01*
X134236Y62875D01*
X134255Y62776D01*
X134731Y61627D01*
X134787Y61544D01*
X134800Y61513D01*
X134820Y61487D01*
X134864Y61397D01*
X135622Y60410D01*
X135697Y60344D01*
X135717Y60317D01*
X135744Y60297D01*
X135810Y60222D01*
X135847Y60193D01*
Y54971D01*
X135925Y54581D01*
X136146Y54250D01*
X136477Y54029D01*
X136867Y53951D01*
X142772D01*
X143163Y54029D01*
X143493Y54250D01*
X143714Y54581D01*
X143792Y54971D01*
Y60224D01*
X143856Y60297D01*
X143883Y60317D01*
X143903Y60344D01*
X143978Y60410D01*
X144736Y61397D01*
X144780Y61487D01*
X144800Y61513D01*
X144813Y61544D01*
X144869Y61627D01*
X145345Y62776D01*
X145364Y62875D01*
X145377Y62906D01*
X145381Y62938D01*
X145414Y63034D01*
X145576Y64267D01*
X145570Y64367D01*
X145574Y64400D01*
X145570Y64433D01*
X145576Y64533D01*
X145414Y65766D01*
X145381Y65861D01*
X145377Y65894D01*
X145364Y65925D01*
X145345Y66023D01*
X144869Y67173D01*
X144813Y67256D01*
X144800Y67287D01*
X144780Y67313D01*
X144736Y67403D01*
X143978Y68390D01*
X143903Y68456D01*
X143883Y68483D01*
X143856Y68503D01*
X143790Y68578D01*
X142803Y69336D01*
X142713Y69380D01*
X142687Y69400D01*
X142656Y69413D01*
X142573Y69469D01*
X141423Y69945D01*
X141325Y69964D01*
X141294Y69977D01*
X141261Y69981D01*
X141166Y70014D01*
X139933Y70176D01*
X139866Y70172D01*
X139800Y70185D01*
D02*
G37*
G36*
X117300D02*
X117234Y70172D01*
X117167Y70176D01*
X115934Y70014D01*
X115839Y69981D01*
X115806Y69977D01*
X115775Y69964D01*
X115676Y69945D01*
X114527Y69469D01*
X114444Y69413D01*
X114413Y69400D01*
X114387Y69380D01*
X114297Y69336D01*
X113310Y68578D01*
X113244Y68503D01*
X113217Y68483D01*
X113197Y68456D01*
X113122Y68390D01*
X112364Y67403D01*
X112320Y67313D01*
X112300Y67287D01*
X112287Y67256D01*
X112231Y67173D01*
X111755Y66023D01*
X111736Y65925D01*
X111723Y65894D01*
X111719Y65861D01*
X111686Y65766D01*
X111524Y64533D01*
X111530Y64433D01*
X111526Y64400D01*
X111530Y64367D01*
X111524Y64267D01*
X111686Y63034D01*
X111719Y62938D01*
X111723Y62906D01*
X111736Y62875D01*
X111755Y62776D01*
X112231Y61627D01*
X112287Y61544D01*
X112300Y61513D01*
X112320Y61487D01*
X112364Y61397D01*
X113122Y60410D01*
X113197Y60344D01*
X113217Y60317D01*
X113244Y60297D01*
X113310Y60222D01*
X113406Y60148D01*
Y54971D01*
X113484Y54581D01*
X113705Y54250D01*
X114036Y54029D01*
X114426Y53951D01*
X120332D01*
X120722Y54029D01*
X121053Y54250D01*
X121274Y54581D01*
X121351Y54971D01*
Y60291D01*
X121356Y60297D01*
X121383Y60317D01*
X121403Y60344D01*
X121478Y60410D01*
X122236Y61397D01*
X122280Y61487D01*
X122300Y61513D01*
X122313Y61544D01*
X122369Y61627D01*
X122845Y62776D01*
X122864Y62875D01*
X122877Y62906D01*
X122881Y62938D01*
X122914Y63034D01*
X123076Y64267D01*
X123070Y64367D01*
X123074Y64400D01*
X123070Y64433D01*
X123076Y64533D01*
X122914Y65766D01*
X122881Y65861D01*
X122877Y65894D01*
X122864Y65925D01*
X122845Y66023D01*
X122369Y67173D01*
X122313Y67256D01*
X122300Y67287D01*
X122280Y67313D01*
X122236Y67403D01*
X121478Y68390D01*
X121403Y68456D01*
X121383Y68483D01*
X121356Y68503D01*
X121290Y68578D01*
X120303Y69336D01*
X120213Y69380D01*
X120187Y69400D01*
X120156Y69413D01*
X120073Y69469D01*
X118923Y69945D01*
X118825Y69964D01*
X118794Y69977D01*
X118762Y69981D01*
X118666Y70014D01*
X117433Y70176D01*
X117366Y70172D01*
X117300Y70185D01*
D02*
G37*
G36*
X147300Y73427D02*
X147202Y73407D01*
X147101D01*
X146333Y73254D01*
X145966Y73102D01*
X145314Y72667D01*
X145033Y72386D01*
X144598Y71734D01*
X144446Y71367D01*
X144293Y70599D01*
Y70201D01*
X144446Y69433D01*
X144598Y69065D01*
X145033Y68414D01*
X145314Y68133D01*
X145966Y67698D01*
X146333Y67546D01*
X147101Y67393D01*
X147202D01*
X147300Y67373D01*
X147398Y67393D01*
X147499D01*
X148267Y67546D01*
X148635Y67698D01*
X149286Y68133D01*
X149567Y68414D01*
X150002Y69065D01*
X150154Y69433D01*
X150307Y70201D01*
Y70599D01*
X150154Y71367D01*
X150002Y71734D01*
X149567Y72386D01*
X149286Y72667D01*
X148635Y73102D01*
X148267Y73254D01*
X147499Y73407D01*
X147398D01*
X147300Y73427D01*
D02*
G37*
G36*
X117300Y77427D02*
X117201Y77407D01*
X117101D01*
X116333Y77254D01*
X115965Y77102D01*
X115314Y76667D01*
X115033Y76386D01*
X114598Y75735D01*
X114446Y75367D01*
X114293Y74599D01*
Y74201D01*
X114446Y73433D01*
X114598Y73066D01*
X115033Y72414D01*
X115314Y72133D01*
X115965Y71698D01*
X116333Y71546D01*
X117101Y71393D01*
X117201D01*
X117300Y71373D01*
X117399Y71393D01*
X117499D01*
X118267Y71546D01*
X118634Y71698D01*
X119286Y72133D01*
X119567Y72414D01*
X120002Y73066D01*
X120154Y73433D01*
X120307Y74201D01*
Y74599D01*
X120154Y75367D01*
X120002Y75735D01*
X119567Y76386D01*
X119286Y76667D01*
X118634Y77102D01*
X118267Y77254D01*
X117499Y77407D01*
X117399D01*
X117300Y77427D01*
D02*
G37*
G36*
X238900Y84837D02*
X237803Y84693D01*
X236782Y84269D01*
X235904Y83596D01*
X235231Y82718D01*
X234807Y81697D01*
X234663Y80600D01*
X234807Y79503D01*
X235231Y78482D01*
X235904Y77604D01*
X236782Y76931D01*
X237803Y76507D01*
X238900Y76363D01*
X239997Y76507D01*
X241019Y76931D01*
X241896Y77604D01*
X242569Y78482D01*
X242993Y79503D01*
X243137Y80600D01*
X242993Y81697D01*
X242569Y82718D01*
X241896Y83596D01*
X241019Y84269D01*
X239997Y84693D01*
X238900Y84837D01*
D02*
G37*
G36*
X187404D02*
X186307Y84693D01*
X185285Y84269D01*
X184408Y83596D01*
X183735Y82718D01*
X183311Y81697D01*
X183167Y80600D01*
X183311Y79503D01*
X183735Y78482D01*
X184408Y77604D01*
X185285Y76931D01*
X186307Y76507D01*
X187404Y76363D01*
X188501Y76507D01*
X189523Y76931D01*
X190400Y77604D01*
X191073Y78482D01*
X191497Y79503D01*
X191641Y80600D01*
X191497Y81697D01*
X191073Y82718D01*
X190400Y83596D01*
X189523Y84269D01*
X188501Y84693D01*
X187404Y84837D01*
D02*
G37*
G36*
X147300Y81427D02*
X147202Y81407D01*
X147101D01*
X146333Y81254D01*
X145966Y81102D01*
X145314Y80667D01*
X145033Y80386D01*
X144598Y79734D01*
X144446Y79367D01*
X144293Y78599D01*
Y78201D01*
X144446Y77433D01*
X144598Y77065D01*
X145033Y76414D01*
X145314Y76133D01*
X145966Y75698D01*
X146333Y75546D01*
X147101Y75393D01*
X147202D01*
X147300Y75373D01*
X147398Y75393D01*
X147499D01*
X148267Y75546D01*
X148635Y75698D01*
X149286Y76133D01*
X149567Y76414D01*
X150002Y77065D01*
X150154Y77433D01*
X150307Y78201D01*
Y78599D01*
X150154Y79367D01*
X150002Y79734D01*
X149567Y80386D01*
X149286Y80667D01*
X148635Y81102D01*
X148267Y81254D01*
X147499Y81407D01*
X147398D01*
X147300Y81427D01*
D02*
G37*
G36*
X139500Y202243D02*
X138642Y202072D01*
X137914Y201586D01*
X137428Y200858D01*
X137257Y200000D01*
X137270Y199933D01*
X128873Y191535D01*
X128541Y191039D01*
X128425Y190454D01*
Y186046D01*
X128541Y185461D01*
X128873Y184965D01*
X139170Y174667D01*
X139157Y174600D01*
X139328Y173742D01*
X139814Y173014D01*
X140542Y172528D01*
X141400Y172357D01*
X142258Y172528D01*
X142986Y173014D01*
X143472Y173742D01*
X143643Y174600D01*
X143472Y175458D01*
X142986Y176186D01*
X142258Y176672D01*
X141400Y176843D01*
X141333Y176830D01*
X131483Y186679D01*
Y189821D01*
X139433Y197770D01*
X139500Y197757D01*
X140358Y197928D01*
X141086Y198414D01*
X141572Y199142D01*
X141743Y200000D01*
X141572Y200858D01*
X141086Y201586D01*
X140358Y202072D01*
X139500Y202243D01*
D02*
G37*
G36*
X105300Y199643D02*
X104442Y199472D01*
X104322Y199393D01*
X104127Y199523D01*
X103737Y199601D01*
X100587D01*
X100197Y199523D01*
X99866Y199302D01*
X99645Y198971D01*
X99568Y198581D01*
Y196219D01*
X99645Y195829D01*
X99866Y195498D01*
X100197Y195277D01*
X100587Y195199D01*
X103737D01*
X104127Y195277D01*
X104322Y195407D01*
X104442Y195328D01*
X105300Y195157D01*
X106158Y195328D01*
X106886Y195814D01*
X107372Y196542D01*
X107543Y197400D01*
X107372Y198258D01*
X106886Y198986D01*
X106158Y199472D01*
X105300Y199643D01*
D02*
G37*
G36*
X148500Y195643D02*
X147642Y195472D01*
X146914Y194986D01*
X146428Y194258D01*
X146257Y193400D01*
X146270Y193333D01*
X141551Y188614D01*
X140900Y188743D01*
X140042Y188572D01*
X139314Y188086D01*
X138828Y187358D01*
X138657Y186500D01*
X138828Y185642D01*
X139314Y184914D01*
X140042Y184428D01*
X140900Y184257D01*
X141758Y184428D01*
X142486Y184914D01*
X142972Y185642D01*
X142989Y185726D01*
X148433Y191170D01*
X148500Y191157D01*
X149358Y191328D01*
X150086Y191814D01*
X150572Y192542D01*
X150743Y193400D01*
X150572Y194258D01*
X150086Y194986D01*
X149358Y195472D01*
X148500Y195643D01*
D02*
G37*
G36*
X137472Y207872D02*
X136613Y207701D01*
X135886Y207214D01*
X135399Y206487D01*
X135229Y205628D01*
X135399Y204770D01*
X135886Y204042D01*
X136613Y203556D01*
X137472Y203385D01*
X138330Y203556D01*
X139058Y204042D01*
X139096Y204099D01*
X139673D01*
X147153Y196619D01*
X147650Y196287D01*
X148235Y196171D01*
X163186D01*
X168330Y191026D01*
Y190093D01*
X164167Y185930D01*
X164100Y185943D01*
X163242Y185772D01*
X162514Y185286D01*
X162028Y184558D01*
X161857Y183700D01*
X162028Y182842D01*
X162514Y182114D01*
X163242Y181628D01*
X164100Y181457D01*
X164958Y181628D01*
X165686Y182114D01*
X166172Y182842D01*
X166343Y183700D01*
X166330Y183767D01*
X170941Y188378D01*
X171273Y188874D01*
X171389Y189460D01*
Y191660D01*
X171273Y192245D01*
X170941Y192741D01*
X164901Y198781D01*
X164405Y199113D01*
X163820Y199229D01*
X148868D01*
X141388Y206710D01*
X140892Y207041D01*
X140306Y207158D01*
X139096D01*
X139058Y207214D01*
X138330Y207701D01*
X137472Y207872D01*
D02*
G37*
G36*
X135700Y174143D02*
X134842Y173972D01*
X134114Y173486D01*
X134076Y173429D01*
X73167D01*
X73129Y173486D01*
X72402Y173972D01*
X71543Y174143D01*
X70685Y173972D01*
X69957Y173486D01*
X69471Y172758D01*
X69300Y171900D01*
X69471Y171042D01*
X69957Y170314D01*
X70685Y169828D01*
X71543Y169657D01*
X72402Y169828D01*
X73129Y170314D01*
X73167Y170371D01*
X107758D01*
X107937Y169871D01*
X107528Y169258D01*
X107357Y168400D01*
X107370Y168333D01*
X94267Y155230D01*
X94200Y155243D01*
X93342Y155072D01*
X92614Y154586D01*
X92128Y153858D01*
X91957Y153000D01*
X92128Y152142D01*
X92614Y151414D01*
X93342Y150928D01*
X94200Y150757D01*
X95058Y150928D01*
X95786Y151414D01*
X96272Y152142D01*
X96443Y153000D01*
X96430Y153067D01*
X109533Y166170D01*
X109600Y166157D01*
X110458Y166328D01*
X110557Y166393D01*
X110998Y166158D01*
Y165261D01*
X102067Y156330D01*
X102000Y156343D01*
X101142Y156172D01*
X100414Y155686D01*
X99928Y154958D01*
X99757Y154100D01*
X99928Y153242D01*
X100414Y152514D01*
X101142Y152028D01*
X102000Y151857D01*
X102858Y152028D01*
X103586Y152514D01*
X104072Y153242D01*
X104243Y154100D01*
X104230Y154167D01*
X113471Y163408D01*
X113971Y163213D01*
Y161033D01*
X112504Y159567D01*
X112173Y159071D01*
X112056Y158486D01*
Y155597D01*
X112173Y155012D01*
X112504Y154516D01*
X114060Y152960D01*
X114556Y152628D01*
X115141Y152512D01*
X116344D01*
X116536Y152050D01*
X116167Y151681D01*
X116100Y151695D01*
X115242Y151524D01*
X114514Y151038D01*
X114028Y150310D01*
X113857Y149451D01*
X114028Y148593D01*
X114514Y147865D01*
X115242Y147379D01*
X116100Y147208D01*
X116958Y147379D01*
X117686Y147865D01*
X118172Y148593D01*
X118343Y149451D01*
X118330Y149518D01*
X124182Y155371D01*
X131481D01*
X131790Y154871D01*
X131657Y154200D01*
X131670Y154133D01*
X127567Y150030D01*
X127500Y150043D01*
X126642Y149872D01*
X125914Y149386D01*
X125428Y148658D01*
X125257Y147800D01*
X125410Y147029D01*
X125147Y146529D01*
X121700D01*
X121115Y146413D01*
X120619Y146081D01*
X114767Y140230D01*
X114700Y140243D01*
X113842Y140072D01*
X113114Y139586D01*
X112628Y138858D01*
X112457Y138000D01*
X112628Y137142D01*
X113114Y136414D01*
X113842Y135928D01*
X114700Y135757D01*
X115558Y135928D01*
X116286Y136414D01*
X116772Y137142D01*
X116943Y138000D01*
X116930Y138067D01*
X122334Y143471D01*
X139540D01*
X139775Y143030D01*
X139728Y142958D01*
X139557Y142100D01*
X139570Y142033D01*
X121757Y124220D01*
X121286Y124086D01*
X120558Y124572D01*
X119700Y124743D01*
X118842Y124572D01*
X118114Y124086D01*
X117628Y123358D01*
X117457Y122500D01*
X117628Y121642D01*
X118114Y120914D01*
X118842Y120428D01*
X119700Y120257D01*
X120558Y120428D01*
X121286Y120914D01*
X121324Y120971D01*
X122200D01*
X122785Y121087D01*
X123281Y121419D01*
X141733Y139870D01*
X141800Y139857D01*
X142658Y140028D01*
X143386Y140514D01*
X143872Y141242D01*
X144026Y142014D01*
X144306Y142225D01*
X144509Y142321D01*
X144513Y142318D01*
X144628Y141742D01*
X145114Y141014D01*
X145842Y140528D01*
X146700Y140357D01*
X147468Y140510D01*
X147968Y140246D01*
Y119202D01*
X148085Y118617D01*
X148416Y118121D01*
X159370Y107167D01*
X159357Y107100D01*
X159528Y106242D01*
X160014Y105514D01*
X160742Y105028D01*
X161600Y104857D01*
X162458Y105028D01*
X163186Y105514D01*
X163672Y106242D01*
X163843Y107100D01*
X163672Y107958D01*
X163186Y108686D01*
X162458Y109172D01*
X161600Y109343D01*
X161533Y109330D01*
X151027Y119836D01*
Y137454D01*
X151527Y137605D01*
X151719Y137319D01*
X165870Y123167D01*
X165857Y123100D01*
X166028Y122242D01*
X166514Y121514D01*
X167242Y121028D01*
X168100Y120857D01*
X168958Y121028D01*
X169686Y121514D01*
X170172Y122242D01*
X170343Y123100D01*
X170172Y123958D01*
X169686Y124686D01*
X168958Y125172D01*
X168100Y125343D01*
X168033Y125330D01*
X154329Y139033D01*
Y154789D01*
X154213Y155374D01*
X153881Y155870D01*
X146670Y163081D01*
X146301Y163328D01*
X146453Y163828D01*
X149733D01*
X149771Y163771D01*
X150499Y163285D01*
X151357Y163114D01*
X152216Y163285D01*
X152944Y163771D01*
X153430Y164499D01*
X153601Y165357D01*
X153430Y166216D01*
X152944Y166944D01*
X152216Y167430D01*
X151357Y167601D01*
X150499Y167430D01*
X149771Y166944D01*
X149733Y166887D01*
X134498D01*
X134346Y167387D01*
X134686Y167614D01*
X135172Y168342D01*
X135343Y169200D01*
X135322Y169308D01*
X135675Y169662D01*
X135700Y169657D01*
X136558Y169828D01*
X137286Y170314D01*
X137772Y171042D01*
X137943Y171900D01*
X137772Y172758D01*
X137286Y173486D01*
X136558Y173972D01*
X135700Y174143D01*
D02*
G37*
G36*
X211700Y212143D02*
X210842Y211972D01*
X210114Y211486D01*
X209628Y210758D01*
X209457Y209900D01*
X209628Y209042D01*
X210099Y208336D01*
Y205187D01*
X210177Y204797D01*
X210398Y204466D01*
X210729Y204245D01*
X211119Y204168D01*
X213481D01*
X213871Y204245D01*
X214202Y204466D01*
X214423Y204797D01*
X214501Y205187D01*
Y208337D01*
X214423Y208727D01*
X214202Y209058D01*
X213871Y209279D01*
X213918Y209776D01*
X213943Y209900D01*
X213772Y210758D01*
X213286Y211486D01*
X212558Y211972D01*
X211700Y212143D01*
D02*
G37*
G36*
X124900Y119015D02*
X124042Y118844D01*
X123314Y118358D01*
X122828Y117630D01*
X122657Y116772D01*
X122670Y116705D01*
X114595Y108629D01*
X88724D01*
X88686Y108686D01*
X87958Y109172D01*
X87100Y109343D01*
X86242Y109172D01*
X85514Y108686D01*
X85028Y107958D01*
X84857Y107100D01*
X85028Y106242D01*
X85514Y105514D01*
X86242Y105028D01*
X87100Y104857D01*
X87958Y105028D01*
X88686Y105514D01*
X88724Y105571D01*
X115228D01*
X115814Y105687D01*
X116310Y106019D01*
X124833Y114542D01*
X124900Y114529D01*
X125758Y114699D01*
X126486Y115185D01*
X126972Y115913D01*
X127143Y116772D01*
X126972Y117630D01*
X126486Y118358D01*
X125758Y118844D01*
X124900Y119015D01*
D02*
G37*
G36*
X135100Y129843D02*
X134242Y129672D01*
X133514Y129186D01*
X133028Y128458D01*
X132857Y127600D01*
X133028Y126742D01*
X133514Y126014D01*
X134242Y125528D01*
X135100Y125357D01*
X135167Y125370D01*
X143571Y116966D01*
Y115024D01*
X143514Y114986D01*
X143028Y114258D01*
X142857Y113400D01*
X142990Y112729D01*
X142681Y112229D01*
X130324D01*
X130286Y112286D01*
X129558Y112772D01*
X128700Y112943D01*
X127842Y112772D01*
X127114Y112286D01*
X126628Y111558D01*
X126457Y110700D01*
X126628Y109842D01*
X127114Y109114D01*
X127842Y108628D01*
X128700Y108457D01*
X129558Y108628D01*
X130286Y109114D01*
X130324Y109171D01*
X143667D01*
X150770Y102067D01*
X150757Y102000D01*
X150928Y101142D01*
X151414Y100414D01*
X152142Y99928D01*
X153000Y99757D01*
X153858Y99928D01*
X154586Y100414D01*
X155072Y101142D01*
X155243Y102000D01*
X155072Y102858D01*
X154586Y103586D01*
X153858Y104072D01*
X153000Y104243D01*
X152933Y104230D01*
X146245Y110918D01*
X146308Y111562D01*
X146686Y111814D01*
X147172Y112542D01*
X147343Y113400D01*
X147172Y114258D01*
X146686Y114986D01*
X146629Y115024D01*
Y117600D01*
X146513Y118185D01*
X146181Y118681D01*
X137330Y127533D01*
X137343Y127600D01*
X137172Y128458D01*
X136686Y129186D01*
X135958Y129672D01*
X135100Y129843D01*
D02*
G37*
G36*
X140200Y136629D02*
X139615Y136513D01*
X139119Y136181D01*
X138787Y135685D01*
X138671Y135100D01*
X138787Y134515D01*
X139119Y134019D01*
X139219Y133919D01*
X139715Y133587D01*
X140300Y133471D01*
X140885Y133587D01*
X141381Y133919D01*
X141713Y134415D01*
X141829Y135000D01*
X141713Y135585D01*
X141381Y136081D01*
X141281Y136181D01*
X140785Y136513D01*
X140200Y136629D01*
D02*
G37*
G36*
X157000Y188943D02*
X156142Y188772D01*
X155414Y188286D01*
X154928Y187558D01*
X154757Y186700D01*
X154928Y185842D01*
X154961Y185792D01*
Y152200D01*
X155116Y151420D01*
X155558Y150758D01*
X159116Y147200D01*
X159128Y147142D01*
X159614Y146414D01*
X160342Y145928D01*
X161200Y145757D01*
X162058Y145928D01*
X162786Y146414D01*
X163272Y147142D01*
X163443Y148000D01*
X163272Y148858D01*
X162786Y149586D01*
X162058Y150072D01*
X162000Y150084D01*
X159039Y153045D01*
Y185792D01*
X159072Y185842D01*
X159243Y186700D01*
X159072Y187558D01*
X158586Y188286D01*
X157858Y188772D01*
X157000Y188943D01*
D02*
G37*
G36*
X105900Y147043D02*
X105042Y146872D01*
X104314Y146386D01*
X103828Y145658D01*
X103657Y144800D01*
X103828Y143942D01*
X103857Y143897D01*
X103677Y143627D01*
X103599Y143237D01*
Y140087D01*
X103677Y139697D01*
X103898Y139366D01*
X104229Y139145D01*
X104619Y139068D01*
X106981D01*
X107371Y139145D01*
X107702Y139366D01*
X107923Y139697D01*
X108001Y140087D01*
Y143237D01*
X107923Y143627D01*
X107843Y143747D01*
X107972Y143942D01*
X108143Y144800D01*
X107972Y145658D01*
X107486Y146386D01*
X106758Y146872D01*
X105900Y147043D01*
D02*
G37*
%LPD*%
G36*
X141880Y155314D02*
X142608Y154828D01*
X143466Y154657D01*
X144325Y154828D01*
X144771Y155126D01*
X145271Y154858D01*
Y150944D01*
X145387Y150359D01*
X145719Y149863D01*
X147968Y147613D01*
Y144954D01*
X147468Y144690D01*
X146725Y144838D01*
X145481Y146081D01*
X144985Y146413D01*
X144400Y146529D01*
X129852D01*
X129590Y147029D01*
X129743Y147800D01*
X129730Y147867D01*
X133833Y151970D01*
X133900Y151957D01*
X134758Y152128D01*
X135486Y152614D01*
X135972Y153342D01*
X136143Y154200D01*
X136010Y154871D01*
X136319Y155371D01*
X141842D01*
X141880Y155314D01*
D02*
G37*
G36*
X151271Y154156D02*
Y149193D01*
X150771Y149041D01*
X150579Y149328D01*
X148329Y151578D01*
Y156443D01*
X148791Y156635D01*
X151271Y154156D01*
D02*
G37*
G36*
X130630Y163328D02*
X130317Y162858D01*
X130146Y162000D01*
X130317Y161142D01*
X130525Y160829D01*
X130258Y160329D01*
X122699D01*
X122492Y160829D01*
X125491Y163828D01*
X130363D01*
X130630Y163328D01*
D02*
G37*
G36*
X131514Y167614D02*
X131854Y167387D01*
X131702Y166887D01*
X124857D01*
X124272Y166770D01*
X123776Y166439D01*
X117490Y160153D01*
X117029Y160399D01*
X117029Y160400D01*
Y163733D01*
X117086Y163771D01*
X117572Y164499D01*
X117743Y165357D01*
X117572Y166216D01*
X117086Y166944D01*
X116746Y167171D01*
X116898Y167671D01*
X131476D01*
X131514Y167614D01*
D02*
G37*
D11*
X97438Y197400D02*
D03*
X102162D02*
D03*
D12*
X212300Y206762D02*
D03*
Y202038D02*
D03*
X105800Y141662D02*
D03*
Y136938D02*
D03*
D33*
X121700Y145000D02*
X144400D01*
X114700Y138000D02*
X121700Y145000D01*
X141600Y186500D02*
X148500Y193400D01*
X140900Y186500D02*
X141600D01*
X115500Y160400D02*
Y165357D01*
X113586Y158486D02*
X115500Y160400D01*
X113586Y155597D02*
Y158486D01*
Y155597D02*
X115141Y154041D01*
X117441D01*
X122200Y158800D01*
X140800D01*
X141648Y159649D01*
X144548D01*
X146800Y157397D01*
Y150944D02*
Y157397D01*
Y150944D02*
X149498Y148247D01*
Y119202D02*
Y148247D01*
Y119202D02*
X161600Y107100D01*
X152800Y138400D02*
X168100Y123100D01*
X152800Y138400D02*
Y154789D01*
X145589Y162000D02*
X152800Y154789D01*
X132389Y162000D02*
X145589D01*
X127500Y147800D02*
X133900Y154200D01*
X135100Y127600D02*
X145100Y117600D01*
Y113400D02*
Y117600D01*
X144300Y110700D02*
X153000Y102000D01*
X128700Y110700D02*
X144300D01*
X102162Y197400D02*
X105300D01*
X212300Y206762D02*
Y209300D01*
X211700Y209900D02*
X212300Y209300D01*
X115228Y107100D02*
X124900Y116772D01*
X87100Y107100D02*
X115228D01*
X124857Y165357D02*
X151357D01*
X116300Y156800D02*
X124857Y165357D01*
X129954Y186046D02*
X141400Y174600D01*
X129954Y186046D02*
Y190454D01*
X139500Y200000D01*
X137472Y205628D02*
X140306D01*
X148235Y197700D01*
X163820D01*
X169860Y191660D01*
Y189460D02*
Y191660D01*
X164100Y183700D02*
X169860Y189460D01*
X71543Y171900D02*
X135700D01*
X122200Y122500D02*
X141800Y142100D01*
X119700Y122500D02*
X122200D01*
X105800Y144700D02*
X105900Y144800D01*
X105800Y141662D02*
Y144700D01*
X102000Y154100D02*
X112527Y164627D01*
Y167827D01*
X113900Y169200D01*
X133100D01*
X94200Y153000D02*
X109600Y168400D01*
X116100Y149451D02*
X123549Y156900D01*
X143466D01*
X144400Y145000D02*
X146700Y142700D01*
Y142600D02*
Y142700D01*
X140200Y135100D02*
X140300Y135000D01*
D34*
X157000Y152200D02*
Y186700D01*
Y152200D02*
X161200Y148000D01*
D42*
X62992Y233858D02*
D03*
X233858D02*
D03*
X62992Y62992D02*
D03*
X233858D02*
D03*
D43*
X55869Y174607D02*
D03*
Y148229D02*
D03*
D44*
X117300Y74400D02*
D03*
X147300Y70400D02*
D03*
Y78400D02*
D03*
D45*
X117300Y84400D02*
D03*
X139800D02*
D03*
X117300Y64400D02*
D03*
X139800D02*
D03*
D46*
X238900Y110600D02*
D03*
Y100600D02*
D03*
Y90600D02*
D03*
Y80600D02*
D03*
X187404D02*
D03*
Y90600D02*
D03*
Y100600D02*
D03*
Y110600D02*
D03*
D47*
X96916Y138000D02*
D03*
X132287Y175075D02*
D03*
X55641Y92500D02*
D03*
X61400Y186725D02*
D03*
X127400Y223675D02*
D03*
X142700Y224075D02*
D03*
X81847Y152601D02*
D03*
X180228Y144643D02*
D03*
X173243Y165928D02*
D03*
X94857Y206028D02*
D03*
X127300Y80175D02*
D03*
X141500Y195100D02*
D03*
X117200Y200100D02*
D03*
X103300Y181700D02*
D03*
X156300Y207300D02*
D03*
X151800Y201400D02*
D03*
X157000Y186700D02*
D03*
X161200Y148000D02*
D03*
X174700Y151800D02*
D03*
X179300Y155000D02*
D03*
X176200Y112361D02*
D03*
X74200Y79700D02*
D03*
X91300Y112100D02*
D03*
X176111Y175900D02*
D03*
X114700Y138000D02*
D03*
X148500Y193400D02*
D03*
X140900Y186500D02*
D03*
X151400Y74400D02*
D03*
X115500Y165357D02*
D03*
X161600Y107100D02*
D03*
X168100Y123100D02*
D03*
X132389Y162000D02*
D03*
X133900Y154200D02*
D03*
X127500Y147800D02*
D03*
X135100Y127600D02*
D03*
X145100Y113400D02*
D03*
X153000Y102000D02*
D03*
X128700Y110700D02*
D03*
X105300Y197400D02*
D03*
X211700Y209900D02*
D03*
X124900Y116772D02*
D03*
X87100Y107100D02*
D03*
X151357Y165357D02*
D03*
X116300Y156800D02*
D03*
X141400Y174600D02*
D03*
X139500Y200000D02*
D03*
X137472Y205628D02*
D03*
X164100Y183700D02*
D03*
X135700Y171900D02*
D03*
X71543D02*
D03*
X141800Y142100D02*
D03*
X119700Y122500D02*
D03*
X105900Y144800D02*
D03*
X102000Y154100D02*
D03*
X133100Y169200D02*
D03*
X94200Y153000D02*
D03*
X109600Y168400D02*
D03*
X116100Y149451D02*
D03*
X143466Y156900D02*
D03*
X115100Y186000D02*
D03*
X191700Y173800D02*
D03*
X146700Y142600D02*
D03*
X145700Y138200D02*
D03*
X74700Y203500D02*
D03*
X88800Y197300D02*
D03*
X140200Y135100D02*
D03*
X136100Y141000D02*
D03*
X201400Y197000D02*
D03*
X162300Y167200D02*
D03*
M02*
