G04 Layer_Color=128*
%FSLAX25Y25*%
%MOIN*%
G70*
G01*
G75*
%ADD92C,0.00200*%
D92*
X57142Y233858D02*
X68842D01*
X62992Y228008D02*
Y239708D01*
X228008Y233858D02*
X239708D01*
X233858Y228008D02*
Y239708D01*
X57142Y62992D02*
X68842D01*
X62992Y57142D02*
Y68842D01*
X228008Y62992D02*
X239708D01*
X233858Y57142D02*
Y68842D01*
X54687Y174607D02*
X57050D01*
X55869Y173426D02*
Y175788D01*
X54687Y148229D02*
X57050D01*
X55869Y147048D02*
Y149410D01*
X115331Y74400D02*
X119269D01*
X117300Y72431D02*
Y76368D01*
X145332Y70400D02*
X149268D01*
X147300Y68432D02*
Y72369D01*
X145332Y78400D02*
X149268D01*
X147300Y76432D02*
Y80369D01*
X112576Y84400D02*
X122024D01*
X117300Y79676D02*
Y89124D01*
X135076Y84400D02*
X144524D01*
X139800Y79676D02*
Y89124D01*
X112576Y64400D02*
X122024D01*
X117300Y59676D02*
Y69124D01*
X135076Y64400D02*
X144524D01*
X139800Y59676D02*
Y69124D01*
X237300Y110600D02*
X240500D01*
X238900Y109000D02*
Y112200D01*
X237300Y100600D02*
X240500D01*
X238900Y99000D02*
Y102200D01*
X237300Y90600D02*
X240500D01*
X238900Y89000D02*
Y92200D01*
X237300Y80600D02*
X240500D01*
X238900Y79000D02*
Y82200D01*
X185803Y80600D02*
X189004D01*
X187404Y79000D02*
Y82200D01*
X185803Y90600D02*
X189004D01*
X187404Y89000D02*
Y92200D01*
X185803Y100600D02*
X189004D01*
X187404Y99000D02*
Y102200D01*
X185803Y110600D02*
X189004D01*
X187404Y109000D02*
Y112200D01*
X96316Y138000D02*
X97516D01*
X96916Y137400D02*
Y138600D01*
X131687Y175075D02*
X132887D01*
X132287Y174475D02*
Y175675D01*
X55041Y92500D02*
X56241D01*
X55641Y91900D02*
Y93100D01*
X60800Y186725D02*
X62000D01*
X61400Y186125D02*
Y187325D01*
X126800Y223675D02*
X128000D01*
X127400Y223075D02*
Y224275D01*
X142100Y224075D02*
X143300D01*
X142700Y223475D02*
Y224675D01*
X81247Y152601D02*
X82447D01*
X81847Y152001D02*
Y153201D01*
X179628Y144643D02*
X180828D01*
X180228Y144043D02*
Y145243D01*
X172643Y165928D02*
X173843D01*
X173243Y165328D02*
Y166528D01*
X94257Y206028D02*
X95457D01*
X94857Y205428D02*
Y206628D01*
X126700Y80175D02*
X127900D01*
X127300Y79575D02*
Y80775D01*
X140900Y195100D02*
X142100D01*
X141500Y194500D02*
Y195700D01*
X116600Y200100D02*
X117800D01*
X117200Y199500D02*
Y200700D01*
X102700Y181700D02*
X103900D01*
X103300Y181100D02*
Y182300D01*
X155700Y207300D02*
X156900D01*
X156300Y206700D02*
Y207900D01*
X151200Y201400D02*
X152400D01*
X151800Y200800D02*
Y202000D01*
X156400Y186700D02*
X157600D01*
X157000Y186100D02*
Y187300D01*
X160600Y148000D02*
X161800D01*
X161200Y147400D02*
Y148600D01*
X174100Y151800D02*
X175300D01*
X174700Y151200D02*
Y152400D01*
X178700Y155000D02*
X179900D01*
X179300Y154400D02*
Y155600D01*
X175600Y112361D02*
X176800D01*
X176200Y111761D02*
Y112961D01*
X73600Y79700D02*
X74800D01*
X74200Y79100D02*
Y80300D01*
X90700Y112100D02*
X91900D01*
X91300Y111500D02*
Y112700D01*
X175511Y175900D02*
X176711D01*
X176111Y175300D02*
Y176500D01*
X114100Y138000D02*
X115300D01*
X114700Y137400D02*
Y138600D01*
X147900Y193400D02*
X149100D01*
X148500Y192800D02*
Y194000D01*
X140300Y186500D02*
X141500D01*
X140900Y185900D02*
Y187100D01*
X150800Y74400D02*
X152000D01*
X151400Y73800D02*
Y75000D01*
X114900Y165357D02*
X116100D01*
X115500Y164757D02*
Y165957D01*
X161000Y107100D02*
X162200D01*
X161600Y106500D02*
Y107700D01*
X167500Y123100D02*
X168700D01*
X168100Y122500D02*
Y123700D01*
X131789Y162000D02*
X132989D01*
X132389Y161400D02*
Y162600D01*
X133300Y154200D02*
X134500D01*
X133900Y153600D02*
Y154800D01*
X126900Y147800D02*
X128100D01*
X127500Y147200D02*
Y148400D01*
X134500Y127600D02*
X135700D01*
X135100Y127000D02*
Y128200D01*
X144500Y113400D02*
X145700D01*
X145100Y112800D02*
Y114000D01*
X152400Y102000D02*
X153600D01*
X153000Y101400D02*
Y102600D01*
X128100Y110700D02*
X129300D01*
X128700Y110100D02*
Y111300D01*
X104700Y197400D02*
X105900D01*
X105300Y196800D02*
Y198000D01*
X211100Y209900D02*
X212300D01*
X211700Y209300D02*
Y210500D01*
X124300Y116772D02*
X125500D01*
X124900Y116172D02*
Y117372D01*
X86500Y107100D02*
X87700D01*
X87100Y106500D02*
Y107700D01*
X150757Y165357D02*
X151957D01*
X151357Y164757D02*
Y165957D01*
X115700Y156800D02*
X116900D01*
X116300Y156200D02*
Y157400D01*
X140800Y174600D02*
X142000D01*
X141400Y174000D02*
Y175200D01*
X138900Y200000D02*
X140100D01*
X139500Y199400D02*
Y200600D01*
X136872Y205628D02*
X138072D01*
X137472Y205028D02*
Y206228D01*
X163500Y183700D02*
X164700D01*
X164100Y183100D02*
Y184300D01*
X135100Y171900D02*
X136300D01*
X135700Y171300D02*
Y172500D01*
X70943Y171900D02*
X72143D01*
X71543Y171300D02*
Y172500D01*
X141200Y142100D02*
X142400D01*
X141800Y141500D02*
Y142700D01*
X119100Y122500D02*
X120300D01*
X119700Y121900D02*
Y123100D01*
X105300Y144800D02*
X106500D01*
X105900Y144200D02*
Y145400D01*
X101400Y154100D02*
X102600D01*
X102000Y153500D02*
Y154700D01*
X132500Y169200D02*
X133700D01*
X133100Y168600D02*
Y169800D01*
X93600Y153000D02*
X94800D01*
X94200Y152400D02*
Y153600D01*
X109000Y168400D02*
X110200D01*
X109600Y167800D02*
Y169000D01*
X115500Y149451D02*
X116700D01*
X116100Y148851D02*
Y150051D01*
X142866Y156900D02*
X144066D01*
X143466Y156300D02*
Y157500D01*
X114500Y186000D02*
X115700D01*
X115100Y185400D02*
Y186600D01*
X191100Y173800D02*
X192300D01*
X191700Y173200D02*
Y174400D01*
X146100Y142600D02*
X147300D01*
X146700Y142000D02*
Y143200D01*
X145100Y138200D02*
X146300D01*
X145700Y137600D02*
Y138800D01*
X74100Y203500D02*
X75300D01*
X74700Y202900D02*
Y204100D01*
X88200Y197300D02*
X89400D01*
X88800Y196700D02*
Y197900D01*
X139600Y135100D02*
X140800D01*
X140200Y134500D02*
Y135700D01*
X135500Y141000D02*
X136700D01*
X136100Y140400D02*
Y141600D01*
X200800Y197000D02*
X202000D01*
X201400Y196400D02*
Y197600D01*
X161700Y167200D02*
X162900D01*
X162300Y166600D02*
Y167800D01*
M02*
