G04 Layer_Physical_Order=1*
G04 Layer_Color=255*
%FSLAX25Y25*%
%MOIN*%
G70*
G01*
G75*
%ADD10R,0.02756X0.03543*%
%ADD11R,0.03150X0.02362*%
%ADD12R,0.02362X0.03150*%
%ADD13R,0.03543X0.02756*%
%ADD14R,0.02362X0.04331*%
%ADD15R,0.03937X0.04331*%
%ADD16R,0.03150X0.03150*%
%ADD17R,0.03150X0.03150*%
%ADD18R,0.07480X0.07480*%
%ADD19R,0.05512X0.06299*%
%ADD20R,0.05315X0.01575*%
%ADD21C,0.03150*%
%ADD22R,0.03740X0.03937*%
%ADD23R,0.03937X0.03740*%
%ADD24R,0.02362X0.01575*%
%ADD25R,0.01575X0.02362*%
%ADD26R,0.07874X0.03937*%
%ADD27R,0.04331X0.02362*%
%ADD28R,0.05118X0.02756*%
%ADD29O,0.07087X0.01181*%
%ADD30O,0.01181X0.07087*%
%ADD31R,0.05512X0.02362*%
%ADD32R,0.04331X0.04724*%
%ADD33C,0.01000*%
%ADD34C,0.02000*%
%ADD35C,0.00800*%
%ADD36R,0.05118X0.01575*%
%ADD37R,0.01181X0.05512*%
%ADD38R,0.01575X0.05512*%
%ADD39R,0.01181X0.05118*%
%ADD40R,0.05118X0.01181*%
%ADD41R,0.03937X0.01181*%
%ADD42C,0.16000*%
%ADD43O,0.06299X0.03543*%
%ADD44C,0.03937*%
%ADD45C,0.09449*%
%ADD46C,0.06402*%
%ADD47C,0.02400*%
D10*
X101943Y209500D02*
D03*
X94857D02*
D03*
X124843Y195100D02*
D03*
X117757D02*
D03*
X166157Y169400D02*
D03*
X173243D02*
D03*
D11*
X78838Y203700D02*
D03*
X83562D02*
D03*
X169762Y152000D02*
D03*
X165038D02*
D03*
X118038Y189300D02*
D03*
X122762D02*
D03*
X172262Y175900D02*
D03*
X167538D02*
D03*
X183538Y151900D02*
D03*
X188262D02*
D03*
X188062Y177000D02*
D03*
X183338D02*
D03*
X78538Y79500D02*
D03*
X83262D02*
D03*
D12*
X144500Y189938D02*
D03*
Y194662D02*
D03*
X138200Y194462D02*
D03*
Y189738D02*
D03*
X117400Y181362D02*
D03*
Y176638D02*
D03*
X176200Y103638D02*
D03*
Y108362D02*
D03*
D13*
X151900Y189857D02*
D03*
Y196943D02*
D03*
X108200Y174457D02*
D03*
Y181543D02*
D03*
X183700Y144643D02*
D03*
Y137557D02*
D03*
D14*
X81060Y164734D02*
D03*
X88540D02*
D03*
Y156466D02*
D03*
D15*
X81847D02*
D03*
D16*
X142700Y220800D02*
D03*
Y214304D02*
D03*
X127400Y220400D02*
D03*
Y213904D02*
D03*
D17*
X61400Y190000D02*
D03*
X67896D02*
D03*
D18*
X55869Y167127D02*
D03*
Y155709D02*
D03*
D19*
X65514Y174016D02*
D03*
Y148820D02*
D03*
D20*
X66400Y161418D02*
D03*
Y163977D02*
D03*
Y166536D02*
D03*
Y158859D02*
D03*
Y156300D02*
D03*
D21*
X122300Y71900D02*
D03*
X127300D02*
D03*
X132300D02*
D03*
X137300D02*
D03*
X142300D02*
D03*
Y76900D02*
D03*
X137300D02*
D03*
X132300D02*
D03*
X127300D02*
D03*
X122300D02*
D03*
D22*
X109800Y193850D02*
D03*
Y187550D02*
D03*
X171200Y190550D02*
D03*
Y184250D02*
D03*
D23*
X172350Y215200D02*
D03*
X166050D02*
D03*
X177150Y128700D02*
D03*
X183450D02*
D03*
D24*
X109500Y200628D02*
D03*
Y204172D02*
D03*
X84800Y198972D02*
D03*
Y195428D02*
D03*
X142700Y206028D02*
D03*
Y209572D02*
D03*
X127300Y209172D02*
D03*
Y205628D02*
D03*
X91400Y117772D02*
D03*
Y114228D02*
D03*
X91900Y80457D02*
D03*
Y84000D02*
D03*
X122200Y113228D02*
D03*
Y116772D02*
D03*
D25*
X155900Y215000D02*
D03*
X159443D02*
D03*
X156128Y211000D02*
D03*
X159672D02*
D03*
X154128Y115000D02*
D03*
X157672D02*
D03*
X154128Y110500D02*
D03*
X157672D02*
D03*
X68000Y184300D02*
D03*
X71543D02*
D03*
X165128Y163500D02*
D03*
X168672D02*
D03*
D26*
X60900Y122500D02*
D03*
X84522D02*
D03*
X61278Y92500D02*
D03*
X84900D02*
D03*
D27*
X92176Y201240D02*
D03*
Y197500D02*
D03*
Y193760D02*
D03*
X101624D02*
D03*
Y201240D02*
D03*
D28*
X101176Y141740D02*
D03*
Y138000D02*
D03*
Y134260D02*
D03*
X110624D02*
D03*
Y138000D02*
D03*
Y141740D02*
D03*
D29*
X157090Y153547D02*
D03*
Y155515D02*
D03*
Y157483D02*
D03*
Y159452D02*
D03*
Y161421D02*
D03*
Y163389D02*
D03*
Y165357D02*
D03*
Y167326D02*
D03*
Y169295D02*
D03*
Y171263D02*
D03*
Y173231D02*
D03*
Y175200D02*
D03*
X125200D02*
D03*
Y173231D02*
D03*
Y171263D02*
D03*
Y169295D02*
D03*
Y167326D02*
D03*
Y165357D02*
D03*
Y163389D02*
D03*
Y161421D02*
D03*
Y159452D02*
D03*
Y157483D02*
D03*
Y155515D02*
D03*
Y153547D02*
D03*
D30*
X151972Y180318D02*
D03*
X150003D02*
D03*
X148035D02*
D03*
X146066D02*
D03*
X144098D02*
D03*
X142129D02*
D03*
X140161D02*
D03*
X138192D02*
D03*
X136224D02*
D03*
X134255D02*
D03*
X132287D02*
D03*
X130318D02*
D03*
Y148428D02*
D03*
X132287D02*
D03*
X134255D02*
D03*
X136224D02*
D03*
X138192D02*
D03*
X140161D02*
D03*
X142129D02*
D03*
X144098D02*
D03*
X146066D02*
D03*
X148035D02*
D03*
X150003D02*
D03*
X151972D02*
D03*
D31*
X218792Y206921D02*
D03*
Y202000D02*
D03*
Y192157D02*
D03*
Y197079D02*
D03*
X205800D02*
D03*
Y192157D02*
D03*
Y202000D02*
D03*
Y206921D02*
D03*
D32*
X188502Y168500D02*
D03*
Y160035D02*
D03*
X182400D02*
D03*
Y168500D02*
D03*
D33*
X112463Y171263D02*
X125200D01*
X102000Y141740D02*
Y154100D01*
X187900Y152262D02*
Y160035D01*
X141500Y195100D02*
X144062D01*
X138838D02*
X141500D01*
X114244Y185900D02*
X114344Y186000D01*
X117644Y189300D02*
X118038D01*
X96916Y138000D02*
X101176D01*
X132287Y175075D02*
Y180318D01*
X55641Y92500D02*
X61278D01*
X91350Y112150D02*
Y114178D01*
X61400Y186725D02*
Y190000D01*
X142700Y220800D02*
Y224075D01*
X81847Y152601D02*
Y156466D01*
X74300Y79600D02*
X78438D01*
X176200Y108362D02*
Y112361D01*
X180228Y144643D02*
X183700D01*
X183144Y151900D02*
X183538D01*
X173243Y165928D02*
Y169400D01*
X172262Y175900D02*
X176111D01*
X169762Y152000D02*
X173461D01*
X94857Y206028D02*
Y209500D01*
X127300Y76900D02*
Y80175D01*
X144500Y194269D02*
X145181Y193587D01*
X144500Y194269D02*
Y194662D01*
X144062Y195100D02*
X144500Y194662D01*
X117200Y198086D02*
Y200100D01*
Y198086D02*
X117457Y197829D01*
X156300Y206324D02*
Y207300D01*
X156128Y206495D02*
X156300Y206324D01*
X174661Y150800D02*
X174700Y150839D01*
Y151800D01*
X181361Y153318D02*
X181726D01*
X183144Y151900D01*
X179679Y155000D02*
X181361Y153318D01*
X74200Y79700D02*
X74300Y79600D01*
X78438D02*
X78538Y79500D01*
X91300Y112100D02*
X91350Y112150D01*
Y114178D02*
X91400Y114228D01*
X110624Y138000D02*
X114700D01*
X159672Y206000D02*
Y211000D01*
X158272Y204600D02*
X159672Y206000D01*
X151172Y204600D02*
X158272D01*
X148500Y201928D02*
X151172Y204600D01*
X148500Y193400D02*
Y201928D01*
X140161Y185761D02*
X140900Y186500D01*
X140161Y180318D02*
Y185761D01*
X117457Y195100D02*
X117757D01*
X181865Y159500D02*
X182400Y160035D01*
X138200Y194462D02*
X138838Y195100D01*
X127300Y76900D02*
X132300Y71900D01*
X142300D02*
X144800Y74400D01*
X151400D01*
X179250Y155050D02*
X179300Y155000D01*
X187404Y80600D02*
Y80948D01*
X115500Y165357D02*
X125200D01*
X157672Y114600D02*
Y115000D01*
X168100Y104472D02*
X181972Y90600D01*
X168100Y104472D02*
Y123100D01*
X131000Y163389D02*
X132389Y162000D01*
X125200Y163389D02*
X131000D01*
X146115Y116224D02*
X150300Y112039D01*
X139615Y116224D02*
X146115D01*
X130318Y125521D02*
X139615Y116224D01*
X130318Y125521D02*
Y148428D01*
X132287D02*
Y152587D01*
X133900Y154200D01*
X127500Y147800D02*
X128100Y147200D01*
Y122700D02*
Y147200D01*
Y122700D02*
X132300Y118500D01*
Y76900D02*
Y118500D01*
X153000Y79769D02*
X155758Y77011D01*
X153000Y79769D02*
Y102000D01*
X128700Y110700D02*
Y119500D01*
X125645Y122555D02*
X128700Y119500D01*
X125645Y122555D02*
Y140055D01*
X120505Y145195D02*
X125645Y140055D01*
X120505Y145195D02*
Y156988D01*
X121000Y157483D01*
X125200D01*
X101624Y201240D02*
X101943D01*
X105200D02*
X108131Y204172D01*
X109500D01*
X105300Y195000D02*
Y197400D01*
X104060Y193760D02*
X105300Y195000D01*
X101624Y193760D02*
X104060D01*
X166157Y175900D02*
X167538D01*
X208721Y206921D02*
X211700Y209900D01*
X188200Y206921D02*
X208721D01*
X179921Y215200D02*
X188200Y206921D01*
X172350Y215200D02*
X179921D01*
X184934Y163801D02*
X187900Y160835D01*
Y152262D02*
X188262Y151900D01*
X182400Y177000D02*
X183338D01*
X179650Y168500D02*
X182400D01*
X83200Y79500D02*
X90543D01*
X91500Y80457D01*
X91900D01*
X83200Y92500D02*
X84900D01*
X86900Y106900D02*
X87100Y107100D01*
X84900Y92500D02*
X86900D01*
X151357Y165357D02*
X157090D01*
X116300Y156800D02*
X118900Y154200D01*
Y142277D02*
Y154200D01*
Y142277D02*
X123672Y137506D01*
Y118000D02*
Y137506D01*
Y118000D02*
X124900Y116772D01*
X122200D02*
X124900D01*
X142700Y209572D02*
Y214304D01*
X127300Y209172D02*
X127400D01*
X68000Y184300D02*
Y185500D01*
X67896Y185604D02*
X68000Y185500D01*
X67896Y185604D02*
Y190000D01*
X122300Y76900D02*
Y79500D01*
X123149Y80348D01*
Y105748D01*
X122200Y106697D02*
X123149Y105748D01*
X122200Y106697D02*
Y113228D01*
X86200Y195728D02*
X88169Y193760D01*
X92176D01*
X142129Y175929D02*
Y180318D01*
X141400Y175200D02*
X142129Y175929D01*
X141400Y174600D02*
Y175200D01*
X139500Y200000D02*
X142300Y202800D01*
Y206028D02*
X142700D01*
X127300Y205628D02*
X137472D01*
X164100Y172563D02*
Y183700D01*
X152085Y155515D02*
X157090D01*
X135700Y171900D02*
X152085Y155515D01*
X71543Y171900D02*
Y184300D01*
X165128Y163300D02*
Y163500D01*
X162511Y163389D02*
X162600Y163300D01*
X157090Y163389D02*
X162511D01*
X84522Y122500D02*
X90000D01*
X91000Y121500D01*
Y117772D02*
X91400D01*
X144098Y144398D02*
Y148428D01*
X141800Y142100D02*
X144098Y144398D01*
X90000Y122500D02*
X119700D01*
X160092Y153546D02*
X161638Y152000D01*
X151972Y151381D02*
X154137Y153546D01*
X138192Y188138D02*
X138200Y188146D01*
Y189738D01*
X154128Y110106D02*
X155887Y108348D01*
X105900Y144800D02*
X106168Y144532D01*
Y142572D02*
Y144532D01*
X107000Y141740D02*
X110624D01*
X104190Y131782D02*
X106293Y133885D01*
Y141033D02*
X107000Y141740D01*
X106293Y133885D02*
Y141033D01*
X81982Y131782D02*
X104190D01*
X72700Y122500D02*
X81982Y131782D01*
X91900Y84000D02*
X92294D01*
X101176Y141740D02*
X102000D01*
X129068Y173232D02*
X133100Y169200D01*
X125200Y173232D02*
X129068D01*
X96100Y134260D02*
X101176D01*
X94200Y136160D02*
X96100Y134260D01*
X94200Y136160D02*
Y153000D01*
X109600Y168400D02*
X112463Y171263D01*
X110624Y134260D02*
X115000D01*
X117400Y136660D01*
Y140577D01*
X116100Y141877D02*
X117400Y140577D01*
X116100Y141877D02*
Y149451D01*
X143466Y156900D02*
X146066Y154300D01*
Y148428D02*
Y154300D01*
X81060Y164734D02*
Y165000D01*
X79524Y166536D02*
X81060Y165000D01*
X86200Y199272D02*
X88169Y201240D01*
X92176D01*
X124500Y194757D02*
X124843Y195100D01*
X122762Y189300D02*
X124500D01*
X117400Y176244D02*
Y176638D01*
X125200Y175200D02*
X128153D01*
X130318Y177366D01*
X179300Y159500D02*
X181865D01*
X157972Y114600D02*
X168100Y104472D01*
X101943Y201240D02*
X105200D01*
X187187Y152581D02*
X187868Y151900D01*
X187900Y160035D02*
X188502D01*
X187868Y151900D02*
X187900D01*
X60900Y122500D02*
X72700D01*
X81060Y165000D02*
Y166500D01*
X117400Y176244D02*
X118081Y175563D01*
X119835D01*
X120164Y175235D01*
X125165D01*
X125200Y175200D01*
X114344Y186000D02*
X115100D01*
X130318Y177366D02*
Y180318D01*
X144098D02*
Y189535D01*
X151972Y117551D02*
X154128Y115394D01*
X138192Y180318D02*
Y188138D01*
X144098Y189535D02*
X144300Y189738D01*
X145181Y193587D02*
X145181D01*
X127400Y220400D02*
Y223675D01*
X101943Y201240D02*
Y209500D01*
X106168Y142572D02*
X107000Y141740D01*
X151972Y117551D02*
Y151381D01*
X154128Y110106D02*
Y115394D01*
X154137Y153546D02*
X160092D01*
X161638Y152000D02*
X164644D01*
X165038D01*
X91900Y84000D02*
Y106118D01*
X72700Y122500D02*
X83600Y111600D01*
X86418D01*
X91900Y106118D01*
X187187Y159323D02*
X187900Y160035D01*
X178588Y163801D02*
X184934D01*
X179300Y155000D02*
X179679D01*
X179250Y155050D02*
Y158264D01*
X179300Y155000D02*
Y159500D01*
X188502Y168500D02*
X191500Y171498D01*
X188062Y177000D02*
X191262Y173800D01*
X191500D01*
X191700D01*
X161600Y106752D02*
X187404Y80948D01*
X155887Y105013D02*
Y108348D01*
Y105013D02*
X157358Y103542D01*
X146700Y142600D02*
X148035Y143935D01*
Y148428D01*
X150003Y142085D02*
Y148428D01*
X146118Y138200D02*
X150003Y142085D01*
X145700Y138200D02*
X146118D01*
X145100Y94300D02*
Y113400D01*
Y94300D02*
X146700Y92700D01*
X142300Y76900D02*
Y78200D01*
X146700Y82600D01*
Y92700D01*
X152500Y77669D02*
X154118Y76050D01*
X152500Y77669D02*
Y78006D01*
X151400Y79106D02*
X152500Y78006D01*
X151400Y79106D02*
Y87700D01*
X150300Y88800D02*
X151400Y87700D01*
X150300Y88800D02*
Y112039D01*
X92294Y84000D02*
X105494Y70800D01*
X121200D01*
X122300Y71900D01*
X127300D02*
X128400Y70800D01*
X131300Y65900D02*
X137300Y71900D01*
X147500Y54300D02*
X157358Y64158D01*
Y103542D01*
X146937Y56000D02*
X155758Y64820D01*
Y77011D01*
X146274Y57600D02*
X154118Y65444D01*
Y76050D01*
X133500Y54300D02*
X147500D01*
X128400Y62000D02*
Y70800D01*
Y62000D02*
X134400Y56000D01*
X146937D01*
X131300Y61700D02*
Y65900D01*
Y61700D02*
X135400Y57600D01*
X146274D01*
X126400Y61400D02*
X133500Y54300D01*
X126400Y61400D02*
Y67800D01*
X122300Y71900D02*
X126400Y67800D01*
X74700Y203500D02*
X78638D01*
X78838Y203700D01*
X89000Y197500D02*
X92176D01*
X88800Y197300D02*
X89000Y197500D01*
X175578Y102622D02*
Y103016D01*
Y102622D02*
X175637Y102563D01*
X180430D02*
X182393Y100600D01*
X187404D01*
X178619Y117171D02*
Y127330D01*
X177249Y128700D02*
X178619Y127330D01*
X177150Y128700D02*
X177249D01*
X157672Y110500D02*
X158278Y110422D01*
X161600Y107100D01*
X132800Y129900D02*
X135100Y127600D01*
X133977Y144775D02*
Y148150D01*
X134255Y148428D01*
X132800Y129900D02*
Y143598D01*
X133977Y144775D01*
X187404Y80600D02*
X226800Y119996D01*
X218792Y206921D02*
X223679D01*
X226800Y203800D01*
Y119996D02*
Y203800D01*
X205721Y197000D02*
X205800Y197079D01*
X201400Y197000D02*
X205721D01*
X223200Y202000D02*
X225100Y200100D01*
X218792Y202000D02*
X223200D01*
X181972Y90600D02*
X195141D01*
X225100Y120559D01*
Y200100D01*
X178900Y103016D02*
Y116890D01*
X178619Y117171D02*
X178900Y116890D01*
X174650Y163500D02*
X179650Y168500D01*
X168672Y163500D02*
X171853D01*
X172125Y163228D01*
X174362D01*
X174634Y163500D01*
X174650D01*
X175287Y160500D02*
X178588Y163801D01*
X157090Y161420D02*
X161680D01*
X162600Y160500D01*
X175287D01*
X157090Y167326D02*
X157216Y167200D01*
X162300D01*
X157090Y171263D02*
X157368Y171541D01*
X161765Y172563D02*
X164100D01*
X157368Y171541D02*
X160743D01*
X161765Y172563D01*
X157090Y169294D02*
X160483D01*
X161130Y169941D01*
X161406D01*
X161490Y170026D01*
X165531D01*
X166157Y169400D01*
X167538Y175900D02*
Y180588D01*
X171200Y184250D01*
X182400Y168500D02*
Y177000D01*
X175637Y102563D02*
X180430D01*
X114344Y186000D02*
X117644Y189300D01*
X117457Y195100D02*
Y197829D01*
X173461Y152000D02*
X174661Y150800D01*
X151800Y196528D02*
Y201400D01*
X156128Y206495D02*
Y211000D01*
X191500Y171498D02*
Y173800D01*
X83200Y79500D02*
Y92500D01*
X86900D02*
Y106900D01*
X127400Y209172D02*
Y213904D01*
X124500Y189300D02*
Y194757D01*
X142300Y202800D02*
Y206028D01*
X162600Y163300D02*
X165128D01*
X157672Y114600D02*
X157972D01*
X91000Y117772D02*
Y121500D01*
X187900Y160035D02*
Y160835D01*
X166157Y169400D02*
Y175900D01*
D34*
X183450Y128700D02*
Y137557D01*
X65514Y148820D02*
X65957Y149263D01*
Y156087D01*
X55869Y148229D02*
X64924D01*
X55869D02*
Y155709D01*
Y167127D02*
Y174607D01*
X64924D01*
X65514Y174017D01*
X109800Y187452D02*
Y187550D01*
X117400Y176638D02*
Y176919D01*
X108578Y174835D02*
X111135D01*
X108200Y174457D02*
X108578Y174835D01*
X109800Y193850D02*
Y200328D01*
X103457Y181543D02*
X108200D01*
X103300Y181700D02*
X103457Y181543D01*
X117400Y181362D02*
Y183600D01*
X109500Y200628D02*
X109628Y200500D01*
X113075D01*
X114100Y201525D01*
Y203100D01*
X114900Y203900D01*
X122700D01*
X136862Y189738D01*
X138200D01*
X109628Y200500D02*
X109800Y200328D01*
X144500Y189938D02*
X151819D01*
X151900Y189857D01*
X152657D01*
X166050Y203250D01*
Y215200D01*
X159443Y215000D02*
X165850D01*
X166050Y215200D01*
X151900Y189857D02*
X155057Y186700D01*
X157000D01*
X164105Y151461D02*
X164644Y152000D01*
X65957Y156087D02*
X66400Y156300D01*
Y166536D02*
X79524D01*
X109800Y187452D02*
X111900Y185352D01*
X111135Y174835D02*
X113400Y177100D01*
X117219D02*
X117400Y176919D01*
X113400Y177100D02*
Y182400D01*
Y177100D02*
X117219D01*
X115100Y185900D02*
X117400Y183600D01*
X115100Y185900D02*
Y186000D01*
X111900Y183900D02*
X113400Y182400D01*
X111900Y183900D02*
Y185352D01*
X122762Y185438D02*
Y189300D01*
Y185438D02*
X127882Y180318D01*
X130096D01*
X138200Y189738D02*
X144300D01*
X144500Y189938D01*
X164105Y151013D02*
Y151461D01*
X161200Y148108D02*
X164105Y151013D01*
X161200Y148000D02*
Y148108D01*
X81060Y166500D02*
X82912Y168352D01*
Y189188D01*
X83562Y200062D02*
Y203700D01*
X82772Y199272D02*
X83562Y200062D01*
X81100Y191000D02*
X82912Y189188D01*
X81100Y191000D02*
Y199200D01*
X81172Y199272D01*
X82772D01*
X136100Y139200D02*
X140200Y135100D01*
X136100Y139200D02*
Y141000D01*
X161200Y147100D02*
Y148000D01*
Y147100D02*
X170743Y137557D01*
X183450D01*
X157000Y186700D02*
X159700D01*
X163550Y190550D01*
X171200D01*
X82772Y199272D02*
X86200D01*
D35*
X78232Y159632D02*
X86369D01*
X88200Y157800D01*
X91952Y159452D02*
X125200D01*
X90300Y157800D02*
X91952Y159452D01*
X95425Y161420D02*
X125200D01*
X95414Y161431D02*
X95425Y161420D01*
X91523Y161431D02*
X95414D01*
X88977Y163977D02*
X91523Y161431D01*
X79602D02*
X86431D01*
X78879Y162154D02*
Y162164D01*
X77065Y163977D02*
X78879Y162164D01*
X159672Y211000D02*
Y211165D01*
X157656Y213181D02*
X159672Y211165D01*
X157000Y213181D02*
X157656D01*
X155900Y214281D02*
X157000Y213181D01*
X155900Y214281D02*
Y215000D01*
X88116Y161516D02*
X88540Y161940D01*
X76323Y163977D02*
X78784Y161516D01*
X76400Y161418D02*
X78118Y159700D01*
X88000D02*
X88540Y159160D01*
X78879Y162154D02*
X79602Y161431D01*
X78784Y161516D02*
X88116D01*
X66400Y163977D02*
X77065D01*
X86431Y161431D02*
X88977Y163977D01*
X88540Y161940D02*
Y164734D01*
X76445Y161418D02*
X78232Y159632D01*
X78118Y159700D02*
X88000D01*
X66400Y161418D02*
X76445D01*
X88540Y156466D02*
Y159160D01*
X88200Y157800D02*
X90300D01*
D36*
X188896Y157476D02*
D03*
X181809Y157476D02*
D03*
D37*
X190865Y159445D02*
D03*
D38*
X180038Y159445D02*
D03*
X180038Y168894D02*
D03*
D39*
X190865Y169090D02*
D03*
D40*
X188896Y171059D02*
D03*
D41*
X182400Y171059D02*
D03*
D42*
X62992Y233858D02*
D03*
X233858D02*
D03*
X62992Y62992D02*
D03*
X233858D02*
D03*
D43*
X55869Y174607D02*
D03*
Y148229D02*
D03*
D44*
X117300Y74400D02*
D03*
X147300Y70400D02*
D03*
Y78400D02*
D03*
D45*
X117300Y84400D02*
D03*
X139800D02*
D03*
X117300Y64400D02*
D03*
X139800D02*
D03*
D46*
X238900Y110600D02*
D03*
Y100600D02*
D03*
Y90600D02*
D03*
Y80600D02*
D03*
X187404D02*
D03*
Y90600D02*
D03*
Y100600D02*
D03*
Y110600D02*
D03*
D47*
X96916Y138000D02*
D03*
X132287Y175075D02*
D03*
X55641Y92500D02*
D03*
X61400Y186725D02*
D03*
X127400Y223675D02*
D03*
X142700Y224075D02*
D03*
X81847Y152601D02*
D03*
X180228Y144643D02*
D03*
X173243Y165928D02*
D03*
X94857Y206028D02*
D03*
X127300Y80175D02*
D03*
X141500Y195100D02*
D03*
X117200Y200100D02*
D03*
X103300Y181700D02*
D03*
X156300Y207300D02*
D03*
X151800Y201400D02*
D03*
X157000Y186700D02*
D03*
X161200Y148000D02*
D03*
X174700Y151800D02*
D03*
X179300Y155000D02*
D03*
X176200Y112361D02*
D03*
X74200Y79700D02*
D03*
X91300Y112100D02*
D03*
X176111Y175900D02*
D03*
X114700Y138000D02*
D03*
X148500Y193400D02*
D03*
X140900Y186500D02*
D03*
X151400Y74400D02*
D03*
X115500Y165357D02*
D03*
X161600Y107100D02*
D03*
X168100Y123100D02*
D03*
X132389Y162000D02*
D03*
X133900Y154200D02*
D03*
X127500Y147800D02*
D03*
X135100Y127600D02*
D03*
X145100Y113400D02*
D03*
X153000Y102000D02*
D03*
X128700Y110700D02*
D03*
X105300Y197400D02*
D03*
X211700Y209900D02*
D03*
X124900Y116772D02*
D03*
X87100Y107100D02*
D03*
X151357Y165357D02*
D03*
X116300Y156800D02*
D03*
X141400Y174600D02*
D03*
X139500Y200000D02*
D03*
X137472Y205628D02*
D03*
X164100Y183700D02*
D03*
X135700Y171900D02*
D03*
X71543D02*
D03*
X141800Y142100D02*
D03*
X119700Y122500D02*
D03*
X105900Y144800D02*
D03*
X102000Y154100D02*
D03*
X133100Y169200D02*
D03*
X94200Y153000D02*
D03*
X109600Y168400D02*
D03*
X116100Y149451D02*
D03*
X143466Y156900D02*
D03*
X115100Y186000D02*
D03*
X191700Y173800D02*
D03*
X146700Y142600D02*
D03*
X145700Y138200D02*
D03*
X74700Y203500D02*
D03*
X88800Y197300D02*
D03*
X140200Y135100D02*
D03*
X136100Y141000D02*
D03*
X201400Y197000D02*
D03*
X162300Y167200D02*
D03*
M02*
