G04 Layer_Color=32896*
%FSLAX25Y25*%
%MOIN*%
G70*
G01*
G75*
%ADD33C,0.01000*%
%ADD91C,0.00500*%
G36*
X49535Y161272D02*
X49541Y161257D01*
X49546Y161243D01*
X49549Y161231D01*
X49551Y161221D01*
X49552Y161213D01*
Y161208D01*
Y161206D01*
X49551Y161196D01*
X49550Y161186D01*
X49547Y161178D01*
X49544Y161170D01*
X49541Y161164D01*
X49539Y161159D01*
X49537Y161156D01*
X49536Y161155D01*
X49529Y161147D01*
X49519Y161138D01*
X49508Y161130D01*
X49498Y161122D01*
X49487Y161116D01*
X49479Y161111D01*
X49473Y161107D01*
X49472Y161106D01*
X49542D01*
Y161035D01*
X49077D01*
Y161114D01*
X49320D01*
X49338Y161115D01*
X49356Y161116D01*
X49371Y161118D01*
X49385Y161121D01*
X49396Y161123D01*
X49405Y161125D01*
X49410Y161126D01*
X49412Y161127D01*
X49422Y161131D01*
X49430Y161135D01*
X49438Y161139D01*
X49444Y161144D01*
X49449Y161148D01*
X49452Y161152D01*
X49454Y161154D01*
X49455Y161155D01*
X49460Y161163D01*
X49464Y161171D01*
X49467Y161179D01*
X49469Y161186D01*
X49470Y161193D01*
X49471Y161198D01*
Y161201D01*
Y161202D01*
X49470Y161213D01*
X49468Y161223D01*
X49466Y161232D01*
X49463Y161241D01*
X49459Y161248D01*
X49457Y161254D01*
X49455Y161258D01*
X49454Y161259D01*
X49527Y161287D01*
X49535Y161272D01*
D02*
G37*
G36*
X49718Y161628D02*
X49488D01*
X49498Y161620D01*
X49507Y161611D01*
X49515Y161602D01*
X49522Y161593D01*
X49527Y161586D01*
X49531Y161580D01*
X49533Y161575D01*
X49534Y161574D01*
X49540Y161562D01*
X49544Y161549D01*
X49548Y161537D01*
X49550Y161525D01*
X49551Y161515D01*
X49552Y161507D01*
Y161502D01*
Y161500D01*
X49551Y161479D01*
X49547Y161460D01*
X49542Y161442D01*
X49537Y161427D01*
X49531Y161415D01*
X49526Y161405D01*
X49522Y161399D01*
X49521Y161398D01*
Y161397D01*
X49509Y161381D01*
X49495Y161367D01*
X49480Y161355D01*
X49466Y161345D01*
X49454Y161338D01*
X49443Y161332D01*
X49439Y161330D01*
X49437Y161329D01*
X49435Y161328D01*
X49434D01*
X49413Y161320D01*
X49391Y161315D01*
X49370Y161311D01*
X49351Y161308D01*
X49334Y161306D01*
X49327D01*
X49321Y161305D01*
X49309D01*
X49283Y161306D01*
X49259Y161309D01*
X49237Y161313D01*
X49219Y161318D01*
X49203Y161322D01*
X49197Y161324D01*
X49192Y161326D01*
X49188Y161328D01*
X49185Y161329D01*
X49183Y161330D01*
X49182D01*
X49163Y161341D01*
X49146Y161352D01*
X49131Y161364D01*
X49119Y161376D01*
X49110Y161386D01*
X49103Y161394D01*
X49098Y161400D01*
X49097Y161402D01*
X49087Y161420D01*
X49080Y161437D01*
X49074Y161455D01*
X49071Y161470D01*
X49069Y161484D01*
X49068Y161495D01*
X49067Y161499D01*
Y161502D01*
Y161503D01*
Y161504D01*
X49068Y161519D01*
X49070Y161534D01*
X49073Y161548D01*
X49078Y161560D01*
X49089Y161583D01*
X49102Y161601D01*
X49108Y161609D01*
X49114Y161615D01*
X49120Y161621D01*
X49125Y161626D01*
X49130Y161629D01*
X49133Y161632D01*
X49135Y161634D01*
X49077D01*
Y161707D01*
X49718D01*
Y161628D01*
D02*
G37*
G36*
X49153Y162179D02*
X49371D01*
Y162532D01*
X49447D01*
Y162179D01*
X49642D01*
Y162556D01*
X49718D01*
Y162094D01*
X49077D01*
Y162571D01*
X49153D01*
Y162179D01*
D02*
G37*
G36*
X49282Y159932D02*
X49301Y159928D01*
X49317Y159923D01*
X49332Y159917D01*
X49343Y159911D01*
X49352Y159906D01*
X49357Y159902D01*
X49359Y159901D01*
X49373Y159888D01*
X49386Y159874D01*
X49396Y159859D01*
X49404Y159845D01*
X49410Y159832D01*
X49415Y159822D01*
X49416Y159818D01*
X49417Y159815D01*
X49418Y159813D01*
Y159812D01*
X49427Y159828D01*
X49436Y159841D01*
X49446Y159853D01*
X49455Y159862D01*
X49463Y159870D01*
X49470Y159875D01*
X49474Y159878D01*
X49476Y159879D01*
X49490Y159887D01*
X49503Y159892D01*
X49517Y159896D01*
X49529Y159899D01*
X49539Y159901D01*
X49547Y159902D01*
X49554D01*
X49570Y159901D01*
X49586Y159898D01*
X49600Y159894D01*
X49613Y159889D01*
X49623Y159884D01*
X49631Y159880D01*
X49636Y159877D01*
X49638Y159876D01*
X49652Y159866D01*
X49665Y159855D01*
X49675Y159843D01*
X49683Y159832D01*
X49690Y159822D01*
X49694Y159814D01*
X49697Y159809D01*
X49698Y159808D01*
Y159807D01*
X49705Y159789D01*
X49710Y159770D01*
X49713Y159750D01*
X49716Y159732D01*
X49717Y159715D01*
Y159708D01*
X49718Y159701D01*
Y159696D01*
Y159692D01*
Y159690D01*
Y159689D01*
Y159450D01*
X49077D01*
Y159693D01*
Y159715D01*
X49079Y159735D01*
X49080Y159752D01*
X49082Y159767D01*
X49084Y159780D01*
X49085Y159789D01*
X49087Y159794D01*
Y159796D01*
X49092Y159811D01*
X49097Y159825D01*
X49102Y159837D01*
X49107Y159848D01*
X49112Y159856D01*
X49116Y159862D01*
X49118Y159866D01*
X49119Y159867D01*
X49128Y159877D01*
X49137Y159886D01*
X49147Y159894D01*
X49156Y159901D01*
X49165Y159907D01*
X49172Y159911D01*
X49176Y159913D01*
X49178Y159914D01*
X49193Y159920D01*
X49208Y159925D01*
X49222Y159928D01*
X49235Y159931D01*
X49246Y159932D01*
X49254Y159933D01*
X49262D01*
X49282Y159932D01*
D02*
G37*
G36*
X49336Y160445D02*
X49355Y160443D01*
X49373Y160440D01*
X49389Y160437D01*
X49405Y160432D01*
X49419Y160427D01*
X49432Y160421D01*
X49444Y160416D01*
X49454Y160410D01*
X49463Y160404D01*
X49471Y160399D01*
X49477Y160395D01*
X49482Y160391D01*
X49486Y160388D01*
X49488Y160386D01*
X49489Y160385D01*
X49500Y160373D01*
X49510Y160361D01*
X49518Y160348D01*
X49525Y160335D01*
X49532Y160322D01*
X49537Y160309D01*
X49544Y160284D01*
X49547Y160272D01*
X49549Y160262D01*
X49550Y160252D01*
X49551Y160244D01*
X49552Y160237D01*
Y160232D01*
Y160229D01*
Y160228D01*
X49551Y160212D01*
X49550Y160197D01*
X49544Y160169D01*
X49536Y160144D01*
X49531Y160133D01*
X49526Y160123D01*
X49521Y160114D01*
X49516Y160106D01*
X49512Y160099D01*
X49508Y160093D01*
X49505Y160088D01*
X49502Y160085D01*
X49501Y160083D01*
X49500Y160082D01*
X49488Y160070D01*
X49474Y160059D01*
X49459Y160049D01*
X49444Y160041D01*
X49428Y160034D01*
X49412Y160028D01*
X49397Y160024D01*
X49381Y160020D01*
X49367Y160017D01*
X49353Y160015D01*
X49341Y160013D01*
X49330Y160012D01*
X49321Y160011D01*
X49309D01*
X49288Y160012D01*
X49267Y160014D01*
X49249Y160017D01*
X49231Y160020D01*
X49215Y160025D01*
X49200Y160030D01*
X49187Y160035D01*
X49175Y160041D01*
X49164Y160047D01*
X49155Y160052D01*
X49147Y160057D01*
X49141Y160062D01*
X49136Y160065D01*
X49132Y160068D01*
X49130Y160070D01*
X49129Y160071D01*
X49118Y160083D01*
X49109Y160095D01*
X49100Y160108D01*
X49093Y160121D01*
X49087Y160134D01*
X49082Y160147D01*
X49075Y160172D01*
X49072Y160184D01*
X49070Y160194D01*
X49069Y160204D01*
X49068Y160212D01*
X49067Y160219D01*
Y160224D01*
Y160227D01*
Y160228D01*
X49068Y160250D01*
X49071Y160271D01*
X49076Y160290D01*
X49081Y160307D01*
X49086Y160321D01*
X49091Y160331D01*
X49092Y160335D01*
X49094Y160338D01*
X49095Y160339D01*
Y160340D01*
X49106Y160358D01*
X49119Y160374D01*
X49132Y160388D01*
X49145Y160399D01*
X49156Y160408D01*
X49166Y160414D01*
X49172Y160418D01*
X49173Y160419D01*
X49174D01*
X49195Y160428D01*
X49218Y160435D01*
X49242Y160439D01*
X49265Y160443D01*
X49285Y160445D01*
X49294D01*
X49301Y160446D01*
X49316D01*
X49336Y160445D01*
D02*
G37*
G36*
X49097Y160930D02*
X49106Y160926D01*
X49114Y160923D01*
X49121Y160921D01*
X49127Y160920D01*
X49131Y160919D01*
X49132D01*
X49139Y160918D01*
X49147D01*
X49156Y160917D01*
X49167D01*
X49190Y160916D01*
X49213D01*
X49236Y160915D01*
X49394D01*
X49410Y160914D01*
X49422D01*
X49432Y160913D01*
X49440Y160912D01*
X49445D01*
X49448Y160911D01*
X49449D01*
X49460Y160908D01*
X49471Y160904D01*
X49480Y160900D01*
X49488Y160896D01*
X49494Y160892D01*
X49498Y160889D01*
X49501Y160887D01*
X49502Y160886D01*
X49510Y160879D01*
X49517Y160870D01*
X49523Y160861D01*
X49528Y160852D01*
X49532Y160844D01*
X49536Y160837D01*
X49537Y160833D01*
X49538Y160831D01*
X49543Y160816D01*
X49546Y160800D01*
X49549Y160784D01*
X49550Y160769D01*
X49551Y160755D01*
X49552Y160744D01*
Y160740D01*
Y160737D01*
Y160735D01*
Y160734D01*
X49551Y160712D01*
X49549Y160692D01*
X49547Y160674D01*
X49544Y160659D01*
X49540Y160646D01*
X49538Y160636D01*
X49536Y160630D01*
X49535Y160629D01*
Y160628D01*
X49528Y160612D01*
X49521Y160598D01*
X49513Y160586D01*
X49506Y160577D01*
X49499Y160569D01*
X49493Y160563D01*
X49489Y160560D01*
X49488Y160559D01*
X49476Y160551D01*
X49463Y160544D01*
X49450Y160538D01*
X49437Y160533D01*
X49426Y160529D01*
X49417Y160527D01*
X49411Y160526D01*
X49410Y160525D01*
X49409D01*
X49399Y160602D01*
X49416Y160607D01*
X49430Y160613D01*
X49442Y160620D01*
X49451Y160626D01*
X49458Y160632D01*
X49463Y160637D01*
X49466Y160640D01*
X49467Y160641D01*
X49474Y160652D01*
X49479Y160665D01*
X49482Y160679D01*
X49485Y160693D01*
X49486Y160705D01*
X49487Y160715D01*
Y160719D01*
Y160722D01*
Y160723D01*
Y160724D01*
X49486Y160745D01*
X49483Y160763D01*
X49478Y160779D01*
X49474Y160792D01*
X49469Y160801D01*
X49464Y160808D01*
X49461Y160813D01*
X49460Y160814D01*
X49451Y160822D01*
X49441Y160827D01*
X49430Y160831D01*
X49419Y160834D01*
X49408Y160836D01*
X49400Y160837D01*
X49381D01*
X49375Y160836D01*
X49372D01*
X49369Y160827D01*
X49366Y160817D01*
X49361Y160795D01*
X49356Y160772D01*
X49352Y160749D01*
X49349Y160728D01*
X49347Y160719D01*
X49346Y160711D01*
X49345Y160704D01*
Y160699D01*
X49344Y160696D01*
Y160695D01*
X49342Y160678D01*
X49340Y160664D01*
X49338Y160652D01*
X49337Y160642D01*
X49335Y160634D01*
X49334Y160629D01*
X49333Y160625D01*
Y160624D01*
X49329Y160612D01*
X49325Y160602D01*
X49321Y160592D01*
X49317Y160584D01*
X49313Y160577D01*
X49310Y160571D01*
X49308Y160568D01*
X49307Y160567D01*
X49300Y160558D01*
X49293Y160550D01*
X49285Y160543D01*
X49278Y160537D01*
X49271Y160532D01*
X49266Y160529D01*
X49262Y160527D01*
X49261Y160526D01*
X49250Y160521D01*
X49240Y160517D01*
X49229Y160515D01*
X49220Y160513D01*
X49211Y160512D01*
X49205Y160511D01*
X49199D01*
X49178Y160513D01*
X49160Y160517D01*
X49143Y160524D01*
X49130Y160532D01*
X49119Y160539D01*
X49111Y160546D01*
X49106Y160550D01*
X49104Y160552D01*
X49092Y160569D01*
X49083Y160588D01*
X49076Y160607D01*
X49072Y160626D01*
X49069Y160644D01*
X49068Y160651D01*
Y160657D01*
X49067Y160663D01*
Y160667D01*
Y160669D01*
Y160670D01*
X49068Y160687D01*
X49069Y160704D01*
X49072Y160719D01*
X49075Y160732D01*
X49077Y160743D01*
X49080Y160751D01*
X49081Y160756D01*
X49082Y160758D01*
X49089Y160773D01*
X49097Y160788D01*
X49105Y160803D01*
X49114Y160815D01*
X49122Y160826D01*
X49129Y160835D01*
X49133Y160840D01*
X49135Y160842D01*
X49123Y160844D01*
X49112Y160846D01*
X49102Y160848D01*
X49093Y160851D01*
X49086Y160854D01*
X49081Y160856D01*
X49078Y160857D01*
X49077Y160858D01*
Y160939D01*
X49097Y160930D01*
D02*
G37*
G36*
X49542Y163482D02*
X49485D01*
X49497Y163472D01*
X49507Y163461D01*
X49516Y163450D01*
X49524Y163438D01*
X49530Y163427D01*
X49536Y163416D01*
X49544Y163394D01*
X49548Y163375D01*
X49550Y163367D01*
X49551Y163360D01*
X49552Y163354D01*
Y163350D01*
Y163347D01*
Y163346D01*
X49551Y163324D01*
X49547Y163304D01*
X49542Y163285D01*
X49537Y163270D01*
X49531Y163257D01*
X49526Y163247D01*
X49522Y163241D01*
X49521Y163240D01*
Y163239D01*
X49508Y163223D01*
X49494Y163209D01*
X49480Y163197D01*
X49466Y163187D01*
X49453Y163179D01*
X49443Y163174D01*
X49439Y163172D01*
X49436Y163170D01*
X49435Y163169D01*
X49434D01*
X49413Y163161D01*
X49391Y163155D01*
X49371Y163151D01*
X49352Y163148D01*
X49335Y163146D01*
X49328D01*
X49322Y163145D01*
X49311D01*
X49293Y163146D01*
X49276Y163147D01*
X49245Y163153D01*
X49230Y163157D01*
X49217Y163161D01*
X49204Y163166D01*
X49193Y163171D01*
X49182Y163176D01*
X49173Y163181D01*
X49165Y163185D01*
X49158Y163189D01*
X49153Y163192D01*
X49149Y163195D01*
X49147Y163196D01*
X49146Y163197D01*
X49134Y163207D01*
X49123Y163219D01*
X49114Y163230D01*
X49106Y163243D01*
X49099Y163255D01*
X49094Y163267D01*
X49089Y163280D01*
X49086Y163291D01*
X49083Y163303D01*
X49081Y163313D01*
X49079Y163322D01*
X49078Y163330D01*
X49077Y163337D01*
Y163342D01*
Y163345D01*
Y163346D01*
X49078Y163360D01*
X49080Y163374D01*
X49083Y163387D01*
X49087Y163399D01*
X49096Y163421D01*
X49108Y163439D01*
X49119Y163455D01*
X49124Y163461D01*
X49129Y163466D01*
X49132Y163470D01*
X49135Y163473D01*
X49137Y163474D01*
X49138Y163475D01*
X49090D01*
X49081Y163474D01*
X49073D01*
X49060Y163472D01*
X49050Y163471D01*
X49043Y163470D01*
X49039Y163469D01*
X49038D01*
X49024Y163464D01*
X49011Y163459D01*
X49001Y163452D01*
X48992Y163445D01*
X48985Y163439D01*
X48980Y163434D01*
X48977Y163430D01*
X48976Y163429D01*
X48969Y163417D01*
X48963Y163403D01*
X48959Y163389D01*
X48957Y163375D01*
X48955Y163363D01*
X48954Y163353D01*
Y163349D01*
Y163346D01*
Y163345D01*
Y163344D01*
X48955Y163326D01*
X48958Y163310D01*
X48961Y163296D01*
X48966Y163285D01*
X48970Y163276D01*
X48973Y163269D01*
X48976Y163265D01*
X48977Y163264D01*
X48984Y163257D01*
X48992Y163251D01*
X49001Y163246D01*
X49009Y163242D01*
X49017Y163240D01*
X49023Y163238D01*
X49027Y163237D01*
X49029D01*
X49039Y163161D01*
X49025D01*
X49013Y163163D01*
X48990Y163168D01*
X48971Y163176D01*
X48955Y163185D01*
X48943Y163194D01*
X48934Y163202D01*
X48929Y163208D01*
X48927Y163209D01*
Y163210D01*
X48914Y163231D01*
X48905Y163253D01*
X48898Y163275D01*
X48894Y163297D01*
X48891Y163315D01*
X48890Y163323D01*
Y163330D01*
X48889Y163336D01*
Y163340D01*
Y163343D01*
Y163344D01*
X48890Y163369D01*
X48893Y163392D01*
X48898Y163412D01*
X48903Y163429D01*
X48907Y163443D01*
X48912Y163453D01*
X48914Y163457D01*
X48915Y163460D01*
X48916Y163461D01*
Y163462D01*
X48927Y163479D01*
X48938Y163493D01*
X48950Y163505D01*
X48962Y163515D01*
X48972Y163523D01*
X48980Y163528D01*
X48986Y163531D01*
X48988Y163532D01*
X48997Y163536D01*
X49007Y163539D01*
X49031Y163545D01*
X49056Y163549D01*
X49081Y163551D01*
X49093Y163552D01*
X49104Y163553D01*
X49114D01*
X49123Y163554D01*
X49542D01*
Y163482D01*
D02*
G37*
G36*
X49331Y164075D02*
X49351Y164073D01*
X49369Y164070D01*
X49386Y164067D01*
X49402Y164062D01*
X49417Y164057D01*
X49430Y164052D01*
X49442Y164046D01*
X49453Y164040D01*
X49462Y164035D01*
X49470Y164030D01*
X49476Y164025D01*
X49481Y164022D01*
X49485Y164019D01*
X49487Y164017D01*
X49488Y164016D01*
X49499Y164005D01*
X49509Y163993D01*
X49518Y163980D01*
X49525Y163967D01*
X49531Y163955D01*
X49536Y163942D01*
X49544Y163918D01*
X49547Y163907D01*
X49549Y163897D01*
X49550Y163887D01*
X49551Y163879D01*
X49552Y163873D01*
Y163868D01*
Y163865D01*
Y163864D01*
X49551Y163846D01*
X49549Y163830D01*
X49546Y163814D01*
X49542Y163799D01*
X49537Y163785D01*
X49531Y163772D01*
X49526Y163761D01*
X49520Y163750D01*
X49513Y163740D01*
X49508Y163732D01*
X49502Y163725D01*
X49497Y163719D01*
X49493Y163714D01*
X49490Y163711D01*
X49488Y163709D01*
X49487Y163708D01*
X49474Y163697D01*
X49461Y163688D01*
X49446Y163680D01*
X49431Y163673D01*
X49416Y163668D01*
X49401Y163663D01*
X49372Y163656D01*
X49358Y163653D01*
X49345Y163651D01*
X49334Y163650D01*
X49324Y163649D01*
X49316Y163648D01*
X49305D01*
X49284Y163649D01*
X49265Y163651D01*
X49247Y163653D01*
X49230Y163657D01*
X49214Y163662D01*
X49200Y163667D01*
X49187Y163672D01*
X49175Y163678D01*
X49164Y163683D01*
X49155Y163688D01*
X49147Y163693D01*
X49141Y163698D01*
X49136Y163702D01*
X49132Y163704D01*
X49130Y163706D01*
X49129Y163707D01*
X49118Y163719D01*
X49109Y163731D01*
X49100Y163744D01*
X49093Y163758D01*
X49087Y163771D01*
X49082Y163785D01*
X49075Y163811D01*
X49072Y163823D01*
X49070Y163834D01*
X49069Y163844D01*
X49068Y163852D01*
X49067Y163859D01*
Y163865D01*
Y163868D01*
Y163869D01*
X49069Y163898D01*
X49073Y163924D01*
X49079Y163947D01*
X49087Y163966D01*
X49090Y163974D01*
X49094Y163981D01*
X49097Y163987D01*
X49100Y163993D01*
X49102Y163997D01*
X49104Y164000D01*
X49106Y164001D01*
Y164002D01*
X49122Y164020D01*
X49140Y164035D01*
X49158Y164047D01*
X49176Y164057D01*
X49192Y164064D01*
X49199Y164067D01*
X49205Y164069D01*
X49210Y164071D01*
X49214Y164072D01*
X49216Y164073D01*
X49217D01*
X49227Y163992D01*
X49210Y163985D01*
X49195Y163977D01*
X49182Y163969D01*
X49172Y163961D01*
X49164Y163954D01*
X49158Y163948D01*
X49155Y163944D01*
X49154Y163943D01*
X49147Y163931D01*
X49141Y163918D01*
X49137Y163906D01*
X49135Y163894D01*
X49133Y163884D01*
X49132Y163876D01*
Y163871D01*
Y163870D01*
Y163869D01*
X49134Y163848D01*
X49138Y163829D01*
X49145Y163813D01*
X49152Y163799D01*
X49159Y163787D01*
X49166Y163779D01*
X49170Y163774D01*
X49172Y163772D01*
X49189Y163759D01*
X49207Y163749D01*
X49227Y163741D01*
X49246Y163736D01*
X49263Y163732D01*
X49270Y163731D01*
X49276Y163730D01*
X49282D01*
X49286Y163729D01*
X49289D01*
Y164075D01*
X49298Y164076D01*
X49310D01*
X49331Y164075D01*
D02*
G37*
G36*
X49718Y162972D02*
X49488D01*
X49498Y162964D01*
X49507Y162955D01*
X49515Y162946D01*
X49522Y162937D01*
X49527Y162930D01*
X49531Y162924D01*
X49533Y162919D01*
X49534Y162918D01*
X49540Y162906D01*
X49544Y162893D01*
X49548Y162881D01*
X49550Y162869D01*
X49551Y162859D01*
X49552Y162851D01*
Y162846D01*
Y162844D01*
X49551Y162823D01*
X49547Y162804D01*
X49542Y162786D01*
X49537Y162771D01*
X49531Y162759D01*
X49526Y162749D01*
X49522Y162743D01*
X49521Y162742D01*
Y162741D01*
X49509Y162725D01*
X49495Y162711D01*
X49480Y162699D01*
X49466Y162689D01*
X49454Y162682D01*
X49443Y162676D01*
X49439Y162674D01*
X49437Y162673D01*
X49435Y162672D01*
X49434D01*
X49413Y162664D01*
X49391Y162659D01*
X49370Y162655D01*
X49351Y162652D01*
X49334Y162650D01*
X49327D01*
X49321Y162649D01*
X49309D01*
X49283Y162650D01*
X49259Y162653D01*
X49237Y162657D01*
X49219Y162662D01*
X49203Y162666D01*
X49197Y162668D01*
X49192Y162670D01*
X49188Y162672D01*
X49185Y162673D01*
X49183Y162674D01*
X49182D01*
X49163Y162685D01*
X49146Y162696D01*
X49131Y162708D01*
X49119Y162720D01*
X49110Y162730D01*
X49103Y162738D01*
X49098Y162744D01*
X49097Y162746D01*
X49087Y162764D01*
X49080Y162781D01*
X49074Y162799D01*
X49071Y162814D01*
X49069Y162828D01*
X49068Y162839D01*
X49067Y162843D01*
Y162846D01*
Y162847D01*
Y162848D01*
X49068Y162863D01*
X49070Y162878D01*
X49073Y162892D01*
X49078Y162904D01*
X49089Y162927D01*
X49102Y162945D01*
X49108Y162953D01*
X49114Y162959D01*
X49120Y162965D01*
X49125Y162970D01*
X49130Y162973D01*
X49133Y162976D01*
X49135Y162978D01*
X49077D01*
Y163051D01*
X49718D01*
Y162972D01*
D02*
G37*
%LPC*%
G36*
X49311Y161636D02*
X49286D01*
X49272Y161634D01*
X49258Y161633D01*
X49246Y161630D01*
X49234Y161627D01*
X49224Y161624D01*
X49214Y161621D01*
X49206Y161618D01*
X49198Y161614D01*
X49192Y161611D01*
X49186Y161608D01*
X49182Y161605D01*
X49176Y161601D01*
X49174Y161599D01*
X49160Y161585D01*
X49150Y161570D01*
X49142Y161556D01*
X49137Y161542D01*
X49134Y161530D01*
X49133Y161521D01*
X49132Y161517D01*
Y161514D01*
Y161513D01*
Y161512D01*
X49133Y161503D01*
X49134Y161494D01*
X49139Y161477D01*
X49146Y161461D01*
X49154Y161448D01*
X49162Y161438D01*
X49169Y161430D01*
X49174Y161425D01*
X49176Y161423D01*
X49185Y161417D01*
X49194Y161411D01*
X49215Y161402D01*
X49237Y161395D01*
X49259Y161391D01*
X49279Y161388D01*
X49287Y161387D01*
X49294D01*
X49301Y161386D01*
X49326D01*
X49341Y161388D01*
X49356Y161389D01*
X49369Y161392D01*
X49381Y161394D01*
X49392Y161397D01*
X49402Y161400D01*
X49411Y161404D01*
X49419Y161407D01*
X49426Y161410D01*
X49431Y161413D01*
X49436Y161416D01*
X49439Y161418D01*
X49442Y161420D01*
X49444Y161421D01*
X49452Y161428D01*
X49458Y161435D01*
X49469Y161449D01*
X49477Y161464D01*
X49482Y161478D01*
X49485Y161490D01*
X49486Y161499D01*
X49487Y161503D01*
Y161506D01*
Y161507D01*
Y161508D01*
Y161518D01*
X49485Y161527D01*
X49480Y161545D01*
X49473Y161561D01*
X49465Y161574D01*
X49456Y161584D01*
X49449Y161592D01*
X49444Y161597D01*
X49443Y161599D01*
X49442D01*
X49433Y161606D01*
X49423Y161611D01*
X49401Y161620D01*
X49378Y161627D01*
X49355Y161631D01*
X49334Y161634D01*
X49325Y161635D01*
X49318D01*
X49311Y161636D01*
D02*
G37*
G36*
X49548Y159819D02*
X49543D01*
X49531Y159818D01*
X49520Y159816D01*
X49511Y159814D01*
X49503Y159811D01*
X49496Y159807D01*
X49491Y159805D01*
X49488Y159803D01*
X49487Y159802D01*
X49479Y159795D01*
X49473Y159788D01*
X49468Y159780D01*
X49463Y159772D01*
X49460Y159765D01*
X49458Y159759D01*
X49456Y159755D01*
Y159754D01*
X49454Y159743D01*
X49452Y159731D01*
X49451Y159717D01*
X49450Y159704D01*
X49449Y159692D01*
Y159682D01*
Y159678D01*
Y159675D01*
Y159674D01*
Y159673D01*
Y159535D01*
X49642D01*
Y159662D01*
Y159686D01*
X49641Y159706D01*
X49639Y159723D01*
X49638Y159736D01*
X49636Y159747D01*
X49634Y159754D01*
X49633Y159758D01*
Y159759D01*
X49629Y159769D01*
X49624Y159778D01*
X49618Y159786D01*
X49613Y159792D01*
X49607Y159797D01*
X49603Y159800D01*
X49600Y159802D01*
X49599Y159803D01*
X49590Y159808D01*
X49580Y159812D01*
X49571Y159815D01*
X49562Y159817D01*
X49554Y159818D01*
X49548Y159819D01*
D02*
G37*
G36*
X49269Y159846D02*
X49263D01*
X49252Y159845D01*
X49241Y159844D01*
X49232Y159842D01*
X49224Y159840D01*
X49217Y159837D01*
X49212Y159835D01*
X49209Y159834D01*
X49208Y159833D01*
X49200Y159828D01*
X49193Y159822D01*
X49187Y159817D01*
X49182Y159812D01*
X49178Y159807D01*
X49175Y159803D01*
X49174Y159801D01*
X49173Y159800D01*
X49165Y159785D01*
X49160Y159769D01*
X49158Y159762D01*
X49157Y159757D01*
X49156Y159753D01*
Y159752D01*
X49155Y159745D01*
X49154Y159736D01*
X49153Y159717D01*
Y159708D01*
Y159701D01*
Y159696D01*
Y159694D01*
Y159535D01*
X49373D01*
Y159682D01*
Y159704D01*
X49371Y159722D01*
X49370Y159738D01*
X49368Y159751D01*
X49366Y159762D01*
X49364Y159769D01*
X49363Y159774D01*
X49362Y159775D01*
X49357Y159787D01*
X49351Y159797D01*
X49345Y159806D01*
X49339Y159813D01*
X49333Y159819D01*
X49328Y159824D01*
X49325Y159826D01*
X49324Y159827D01*
X49314Y159833D01*
X49304Y159838D01*
X49293Y159841D01*
X49284Y159844D01*
X49275Y159845D01*
X49269Y159846D01*
D02*
G37*
G36*
X49320Y160365D02*
X49296D01*
X49280Y160363D01*
X49266Y160361D01*
X49252Y160359D01*
X49240Y160356D01*
X49229Y160353D01*
X49219Y160349D01*
X49210Y160346D01*
X49202Y160342D01*
X49195Y160338D01*
X49189Y160335D01*
X49184Y160332D01*
X49181Y160330D01*
X49178Y160328D01*
X49177Y160326D01*
X49176D01*
X49168Y160319D01*
X49162Y160311D01*
X49151Y160294D01*
X49143Y160278D01*
X49138Y160262D01*
X49134Y160249D01*
X49133Y160238D01*
X49132Y160234D01*
Y160231D01*
Y160229D01*
Y160228D01*
X49133Y160217D01*
X49134Y160207D01*
X49139Y160188D01*
X49146Y160171D01*
X49154Y160157D01*
X49162Y160145D01*
X49169Y160137D01*
X49174Y160132D01*
X49176Y160130D01*
X49185Y160123D01*
X49194Y160117D01*
X49215Y160108D01*
X49237Y160101D01*
X49259Y160097D01*
X49279Y160094D01*
X49287Y160093D01*
X49294D01*
X49301Y160092D01*
X49325D01*
X49340Y160094D01*
X49354Y160096D01*
X49367Y160098D01*
X49379Y160101D01*
X49390Y160104D01*
X49400Y160107D01*
X49409Y160111D01*
X49417Y160115D01*
X49423Y160118D01*
X49429Y160121D01*
X49434Y160124D01*
X49437Y160127D01*
X49440Y160128D01*
X49442Y160130D01*
X49450Y160138D01*
X49457Y160145D01*
X49468Y160162D01*
X49476Y160178D01*
X49481Y160194D01*
X49485Y160207D01*
X49486Y160218D01*
X49487Y160222D01*
Y160225D01*
Y160227D01*
Y160228D01*
Y160239D01*
X49485Y160249D01*
X49480Y160268D01*
X49473Y160284D01*
X49465Y160298D01*
X49456Y160310D01*
X49449Y160318D01*
X49444Y160323D01*
X49443Y160325D01*
X49442D01*
X49424Y160338D01*
X49403Y160348D01*
X49382Y160355D01*
X49361Y160360D01*
X49342Y160363D01*
X49333Y160364D01*
X49326D01*
X49320Y160365D01*
D02*
G37*
G36*
X49281Y160836D02*
X49263Y160835D01*
X49247Y160834D01*
X49234Y160832D01*
X49223Y160830D01*
X49214Y160827D01*
X49208Y160825D01*
X49204Y160824D01*
X49203Y160823D01*
X49191Y160816D01*
X49180Y160808D01*
X49170Y160799D01*
X49162Y160790D01*
X49156Y160782D01*
X49152Y160776D01*
X49149Y160772D01*
X49148Y160770D01*
X49142Y160757D01*
X49137Y160743D01*
X49134Y160729D01*
X49131Y160716D01*
X49130Y160705D01*
X49129Y160697D01*
Y160691D01*
Y160690D01*
Y160689D01*
X49130Y160673D01*
X49132Y160659D01*
X49135Y160647D01*
X49139Y160637D01*
X49143Y160629D01*
X49146Y160624D01*
X49148Y160620D01*
X49149Y160619D01*
X49157Y160611D01*
X49166Y160605D01*
X49175Y160601D01*
X49183Y160598D01*
X49191Y160596D01*
X49197Y160595D01*
X49202D01*
X49216Y160597D01*
X49228Y160600D01*
X49233Y160602D01*
X49236Y160603D01*
X49238Y160605D01*
X49239D01*
X49250Y160615D01*
X49258Y160625D01*
X49261Y160629D01*
X49263Y160633D01*
X49264Y160635D01*
Y160636D01*
X49267Y160645D01*
X49270Y160656D01*
X49275Y160679D01*
X49277Y160689D01*
X49279Y160698D01*
X49280Y160704D01*
Y160705D01*
Y160706D01*
X49282Y160722D01*
X49285Y160736D01*
X49287Y160750D01*
X49290Y160762D01*
X49292Y160774D01*
X49295Y160785D01*
X49297Y160794D01*
X49300Y160803D01*
X49302Y160810D01*
X49304Y160817D01*
X49305Y160822D01*
X49307Y160827D01*
X49308Y160830D01*
X49309Y160833D01*
X49310Y160835D01*
X49281Y160836D01*
D02*
G37*
G36*
X49322Y163482D02*
X49298D01*
X49283Y163480D01*
X49269Y163479D01*
X49256Y163476D01*
X49244Y163473D01*
X49233Y163470D01*
X49224Y163467D01*
X49215Y163464D01*
X49208Y163460D01*
X49201Y163457D01*
X49195Y163454D01*
X49191Y163451D01*
X49187Y163448D01*
X49185Y163447D01*
X49183Y163445D01*
X49169Y163430D01*
X49159Y163415D01*
X49152Y163400D01*
X49147Y163386D01*
X49144Y163373D01*
X49143Y163363D01*
X49142Y163359D01*
Y163356D01*
Y163355D01*
Y163354D01*
X49144Y163334D01*
X49149Y163316D01*
X49155Y163301D01*
X49163Y163287D01*
X49171Y163277D01*
X49177Y163269D01*
X49182Y163264D01*
X49184Y163262D01*
X49192Y163256D01*
X49202Y163250D01*
X49223Y163241D01*
X49245Y163235D01*
X49266Y163231D01*
X49286Y163228D01*
X49295Y163227D01*
X49302D01*
X49308Y163226D01*
X49317D01*
X49347Y163228D01*
X49372Y163232D01*
X49394Y163238D01*
X49412Y163245D01*
X49426Y163251D01*
X49436Y163257D01*
X49440Y163260D01*
X49442Y163261D01*
X49444Y163263D01*
X49452Y163270D01*
X49458Y163278D01*
X49469Y163293D01*
X49477Y163308D01*
X49482Y163322D01*
X49485Y163334D01*
X49486Y163344D01*
X49487Y163348D01*
Y163351D01*
Y163352D01*
Y163353D01*
Y163363D01*
X49485Y163372D01*
X49480Y163390D01*
X49473Y163405D01*
X49465Y163418D01*
X49457Y163429D01*
X49450Y163437D01*
X49445Y163442D01*
X49444Y163444D01*
X49443D01*
X49434Y163451D01*
X49425Y163457D01*
X49405Y163466D01*
X49383Y163473D01*
X49362Y163477D01*
X49344Y163480D01*
X49335Y163481D01*
X49328D01*
X49322Y163482D01*
D02*
G37*
G36*
X49357Y163993D02*
X49354D01*
Y163733D01*
X49375Y163736D01*
X49394Y163741D01*
X49411Y163747D01*
X49425Y163754D01*
X49435Y163761D01*
X49443Y163767D01*
X49448Y163771D01*
X49450Y163773D01*
X49462Y163788D01*
X49471Y163803D01*
X49478Y163819D01*
X49482Y163833D01*
X49485Y163846D01*
X49486Y163856D01*
X49487Y163860D01*
Y163863D01*
Y163864D01*
Y163865D01*
Y163876D01*
X49485Y163886D01*
X49480Y163906D01*
X49472Y163922D01*
X49464Y163937D01*
X49456Y163948D01*
X49448Y163956D01*
X49443Y163961D01*
X49442Y163963D01*
X49441D01*
X49429Y163971D01*
X49415Y163978D01*
X49401Y163983D01*
X49387Y163987D01*
X49374Y163990D01*
X49364Y163992D01*
X49360D01*
X49357Y163993D01*
D02*
G37*
G36*
X49311Y162980D02*
X49286D01*
X49272Y162978D01*
X49258Y162977D01*
X49246Y162974D01*
X49234Y162971D01*
X49224Y162968D01*
X49214Y162965D01*
X49206Y162962D01*
X49198Y162958D01*
X49192Y162955D01*
X49186Y162952D01*
X49182Y162949D01*
X49176Y162945D01*
X49174Y162943D01*
X49160Y162929D01*
X49150Y162914D01*
X49142Y162900D01*
X49137Y162886D01*
X49134Y162874D01*
X49133Y162865D01*
X49132Y162861D01*
Y162858D01*
Y162857D01*
Y162856D01*
X49133Y162847D01*
X49134Y162838D01*
X49139Y162821D01*
X49146Y162805D01*
X49154Y162792D01*
X49162Y162782D01*
X49169Y162774D01*
X49174Y162769D01*
X49176Y162767D01*
X49185Y162761D01*
X49194Y162755D01*
X49215Y162746D01*
X49237Y162739D01*
X49259Y162735D01*
X49279Y162732D01*
X49287Y162731D01*
X49294D01*
X49301Y162730D01*
X49326D01*
X49341Y162732D01*
X49356Y162733D01*
X49369Y162736D01*
X49381Y162738D01*
X49392Y162741D01*
X49402Y162744D01*
X49411Y162748D01*
X49419Y162751D01*
X49426Y162754D01*
X49431Y162757D01*
X49436Y162760D01*
X49439Y162762D01*
X49442Y162764D01*
X49444Y162765D01*
X49452Y162772D01*
X49458Y162779D01*
X49469Y162793D01*
X49477Y162808D01*
X49482Y162822D01*
X49485Y162834D01*
X49486Y162843D01*
X49487Y162847D01*
Y162850D01*
Y162851D01*
Y162852D01*
Y162862D01*
X49485Y162871D01*
X49480Y162889D01*
X49473Y162905D01*
X49465Y162918D01*
X49456Y162928D01*
X49449Y162936D01*
X49444Y162941D01*
X49443Y162943D01*
X49442D01*
X49433Y162950D01*
X49423Y162955D01*
X49401Y162964D01*
X49378Y162971D01*
X49355Y162975D01*
X49334Y162978D01*
X49325Y162979D01*
X49318D01*
X49311Y162980D01*
D02*
G37*
%LPD*%
D33*
X235039Y50000D02*
G03*
X246850Y61811I0J11811D01*
G01*
Y235039D02*
G03*
X235039Y246850I-11811J0D01*
G01*
X61811D02*
G03*
X50000Y235039I0J-11811D01*
G01*
Y61811D02*
G03*
X61811Y50000I11811J0D01*
G01*
X61811D02*
X235039D01*
X246850Y61811D02*
Y235039D01*
X61811Y246850D02*
X235039D01*
X50000Y61811D02*
Y235039D01*
D91*
X50160Y145670D02*
Y177166D01*
M02*
