M48
;Layer_Color=9474304
;FILE_FORMAT=2:5
INCH,LZ
;TYPE=PLATED
T1F00S00C0.01200
T3F00S00C0.03201
T4F00S00C0.03937
T5F00S00C0.09449
T6F00S00C0.11700
%
T01
X0055641Y00925
X00742Y00797
X00871Y01071
X00913Y01121
X0096916Y0138
X01059Y01448
X0102Y01541
X00942Y0153
X0081847Y0152601
X01161Y0149451
X01147Y0138
X01197Y01225
X01249Y0116772
X01287Y01107
X01451Y01134
X0153Y0102
X01514Y00744
X01273Y0080175
X01351Y01276
X01402Y01351
X01418Y01421
X01467Y01426
X01457Y01382
X01361Y0141
X01339Y01542
X01275Y01478
X01612Y0148
X01747Y01518
X01793Y0155
X0180228Y0144643
X01681Y01231
X01762Y0112361
X01616Y01071
X01623Y01672
X0173243Y0165928
X0176111Y01759
X01917Y01738
X02014Y0197
X02117Y02099
X01563Y02073
X0157Y01867
X01641Y01837
X01485Y01934
X01415Y01951
X01395Y02
X0137472Y0205628
X01518Y02014
X01409Y01865
X01414Y01746
X01357Y01719
X01331Y01692
X0132287Y0175075
X0132389Y0162
X0143466Y01569
X0151357Y0165357
X01155
X01096Y01684
X01163Y01568
X01151Y0186
X01033Y01817
X01053Y01974
X01172Y02001
X0094857Y0206028
X00888Y01973
X00747Y02035
X00614Y0186725
X0071543Y01719
X01274Y0223675
X01427Y0224075
T03
X0187404Y00806
Y00906
Y01006
Y01106
X02389
Y01006
Y00906
Y00806
T04
X01173Y00744
X01473Y00704
Y00784
T05
X01173Y00644
Y00844
X01398
Y00644
T06
X0062992Y0062992
X0233858
Y0233858
X0062992
M30
