G04 Layer_Color=2752767*
%FSLAX25Y25*%
%MOIN*%
G70*
G01*
G75*
%ADD92C,0.00200*%
%ADD93C,0.00267*%
D92*
X62192Y233058D02*
Y234658D01*
X63792D01*
Y233058D01*
X62192D01*
X233058D02*
Y234658D01*
X234658D01*
Y233058D01*
X233058D01*
X62192Y62192D02*
Y63792D01*
X63792D01*
Y62192D01*
X62192D01*
X233058D02*
Y63792D01*
X234658D01*
Y62192D01*
X233058D01*
X117300Y73600D02*
X116500Y75200D01*
X118100D01*
X117300Y73600D01*
X147300Y69600D02*
X146500Y71200D01*
X148100D01*
X147300Y69600D01*
Y77600D02*
X146500Y79200D01*
X148100D01*
X147300Y77600D01*
X117300Y83600D02*
X117700Y84000D01*
X118100D01*
X117700Y84400D01*
X118100Y84800D01*
X117700D01*
X117300Y85200D01*
X116900Y84800D01*
X116500D01*
X116900Y84400D01*
X116500Y84000D01*
X116900D01*
X117300Y83600D01*
X139800D02*
X140200Y84000D01*
X140600D01*
X140200Y84400D01*
X140600Y84800D01*
X140200D01*
X139800Y85200D01*
X139400Y84800D01*
X139000D01*
X139400Y84400D01*
X139000Y84000D01*
X139400D01*
X139800Y83600D01*
X117300Y63600D02*
X117700Y64000D01*
X118100D01*
X117700Y64400D01*
X118100Y64800D01*
X117700D01*
X117300Y65200D01*
X116900Y64800D01*
X116500D01*
X116900Y64400D01*
X116500Y64000D01*
X116900D01*
X117300Y63600D01*
X139800D02*
X140200Y64000D01*
X140600D01*
X140200Y64400D01*
X140600Y64800D01*
X140200D01*
X139800Y65200D01*
X139400Y64800D01*
X139000D01*
X139400Y64400D01*
X139000Y64000D01*
X139400D01*
X139800Y63600D01*
X238100Y109800D02*
X238500Y110600D01*
X238100Y111400D01*
X238900Y111000D01*
X239700Y111400D01*
X239300Y110600D01*
X239700Y109800D01*
X238900Y110200D01*
X238100Y109800D01*
Y99800D02*
X238500Y100600D01*
X238100Y101400D01*
X238900Y101000D01*
X239700Y101400D01*
X239300Y100600D01*
X239700Y99800D01*
X238900Y100200D01*
X238100Y99800D01*
Y89800D02*
X238500Y90600D01*
X238100Y91400D01*
X238900Y91000D01*
X239700Y91400D01*
X239300Y90600D01*
X239700Y89800D01*
X238900Y90200D01*
X238100Y89800D01*
Y79800D02*
X238500Y80600D01*
X238100Y81400D01*
X238900Y81000D01*
X239700Y81400D01*
X239300Y80600D01*
X239700Y79800D01*
X238900Y80200D01*
X238100Y79800D01*
X186604D02*
X187004Y80600D01*
X186604Y81400D01*
X187404Y81000D01*
X188204Y81400D01*
X187804Y80600D01*
X188204Y79800D01*
X187404Y80200D01*
X186604Y79800D01*
Y89800D02*
X187004Y90600D01*
X186604Y91400D01*
X187404Y91000D01*
X188204Y91400D01*
X187804Y90600D01*
X188204Y89800D01*
X187404Y90200D01*
X186604Y89800D01*
Y99800D02*
X187004Y100600D01*
X186604Y101400D01*
X187404Y101000D01*
X188204Y101400D01*
X187804Y100600D01*
X188204Y99800D01*
X187404Y100200D01*
X186604Y99800D01*
Y109800D02*
X187004Y110600D01*
X186604Y111400D01*
X187404Y111000D01*
X188204Y111400D01*
X187804Y110600D01*
X188204Y109800D01*
X187404Y110200D01*
X186604Y109800D01*
X96516Y137600D02*
Y137200D01*
X97316D01*
Y137600D01*
X97716D01*
Y138400D01*
X97316D01*
Y138800D01*
X96516D01*
Y138400D01*
X96116D01*
Y137600D01*
X96516D01*
X131887Y174675D02*
Y174275D01*
X132687D01*
Y174675D01*
X133087D01*
Y175475D01*
X132687D01*
Y175875D01*
X131887D01*
Y175475D01*
X131487D01*
Y174675D01*
X131887D01*
X55241Y92100D02*
Y91700D01*
X56041D01*
Y92100D01*
X56441D01*
Y92900D01*
X56041D01*
Y93300D01*
X55241D01*
Y92900D01*
X54841D01*
Y92100D01*
X55241D01*
X61000Y186325D02*
Y185925D01*
X61800D01*
Y186325D01*
X62200D01*
Y187125D01*
X61800D01*
Y187525D01*
X61000D01*
Y187125D01*
X60600D01*
Y186325D01*
X61000D01*
X127000Y223275D02*
Y222875D01*
X127800D01*
Y223275D01*
X128200D01*
Y224075D01*
X127800D01*
Y224475D01*
X127000D01*
Y224075D01*
X126600D01*
Y223275D01*
X127000D01*
X142300Y223675D02*
Y223275D01*
X143100D01*
Y223675D01*
X143500D01*
Y224475D01*
X143100D01*
Y224875D01*
X142300D01*
Y224475D01*
X141900D01*
Y223675D01*
X142300D01*
X81447Y152201D02*
Y151801D01*
X82247D01*
Y152201D01*
X82647D01*
Y153001D01*
X82247D01*
Y153401D01*
X81447D01*
Y153001D01*
X81047D01*
Y152201D01*
X81447D01*
X179828Y144243D02*
Y143843D01*
X180628D01*
Y144243D01*
X181028D01*
Y145043D01*
X180628D01*
Y145443D01*
X179828D01*
Y145043D01*
X179428D01*
Y144243D01*
X179828D01*
X172843Y165528D02*
Y165128D01*
X173643D01*
Y165528D01*
X174043D01*
Y166328D01*
X173643D01*
Y166728D01*
X172843D01*
Y166328D01*
X172443D01*
Y165528D01*
X172843D01*
X94457Y205628D02*
Y205228D01*
X95257D01*
Y205628D01*
X95657D01*
Y206428D01*
X95257D01*
Y206828D01*
X94457D01*
Y206428D01*
X94057D01*
Y205628D01*
X94457D01*
X126900Y79775D02*
Y79375D01*
X127700D01*
Y79775D01*
X128100D01*
Y80575D01*
X127700D01*
Y80975D01*
X126900D01*
Y80575D01*
X126500D01*
Y79775D01*
X126900D01*
X141100Y194700D02*
Y194300D01*
X141900D01*
Y194700D01*
X142300D01*
Y195500D01*
X141900D01*
Y195900D01*
X141100D01*
Y195500D01*
X140700D01*
Y194700D01*
X141100D01*
X116800Y199700D02*
Y199300D01*
X117600D01*
Y199700D01*
X118000D01*
Y200500D01*
X117600D01*
Y200900D01*
X116800D01*
Y200500D01*
X116400D01*
Y199700D01*
X116800D01*
X102900Y181300D02*
Y180900D01*
X103700D01*
Y181300D01*
X104100D01*
Y182100D01*
X103700D01*
Y182500D01*
X102900D01*
Y182100D01*
X102500D01*
Y181300D01*
X102900D01*
X155900Y206900D02*
Y206500D01*
X156700D01*
Y206900D01*
X157100D01*
Y207700D01*
X156700D01*
Y208100D01*
X155900D01*
Y207700D01*
X155500D01*
Y206900D01*
X155900D01*
X151400Y201000D02*
Y200600D01*
X152200D01*
Y201000D01*
X152600D01*
Y201800D01*
X152200D01*
Y202200D01*
X151400D01*
Y201800D01*
X151000D01*
Y201000D01*
X151400D01*
X156600Y186300D02*
Y185900D01*
X157400D01*
Y186300D01*
X157800D01*
Y187100D01*
X157400D01*
Y187500D01*
X156600D01*
Y187100D01*
X156200D01*
Y186300D01*
X156600D01*
X160800Y147600D02*
Y147200D01*
X161600D01*
Y147600D01*
X162000D01*
Y148400D01*
X161600D01*
Y148800D01*
X160800D01*
Y148400D01*
X160400D01*
Y147600D01*
X160800D01*
X174300Y151400D02*
Y151000D01*
X175100D01*
Y151400D01*
X175500D01*
Y152200D01*
X175100D01*
Y152600D01*
X174300D01*
Y152200D01*
X173900D01*
Y151400D01*
X174300D01*
X178900Y154600D02*
Y154200D01*
X179700D01*
Y154600D01*
X180100D01*
Y155400D01*
X179700D01*
Y155800D01*
X178900D01*
Y155400D01*
X178500D01*
Y154600D01*
X178900D01*
X175800Y111961D02*
Y111561D01*
X176600D01*
Y111961D01*
X177000D01*
Y112761D01*
X176600D01*
Y113161D01*
X175800D01*
Y112761D01*
X175400D01*
Y111961D01*
X175800D01*
X73800Y79300D02*
Y78900D01*
X74600D01*
Y79300D01*
X75000D01*
Y80100D01*
X74600D01*
Y80500D01*
X73800D01*
Y80100D01*
X73400D01*
Y79300D01*
X73800D01*
X90900Y111700D02*
Y111300D01*
X91700D01*
Y111700D01*
X92100D01*
Y112500D01*
X91700D01*
Y112900D01*
X90900D01*
Y112500D01*
X90500D01*
Y111700D01*
X90900D01*
X175711Y175500D02*
Y175100D01*
X176511D01*
Y175500D01*
X176911D01*
Y176300D01*
X176511D01*
Y176700D01*
X175711D01*
Y176300D01*
X175311D01*
Y175500D01*
X175711D01*
X114300Y137600D02*
Y137200D01*
X115100D01*
Y137600D01*
X115500D01*
Y138400D01*
X115100D01*
Y138800D01*
X114300D01*
Y138400D01*
X113900D01*
Y137600D01*
X114300D01*
X148100Y193000D02*
Y192600D01*
X148900D01*
Y193000D01*
X149300D01*
Y193800D01*
X148900D01*
Y194200D01*
X148100D01*
Y193800D01*
X147700D01*
Y193000D01*
X148100D01*
X140500Y186100D02*
Y185700D01*
X141300D01*
Y186100D01*
X141700D01*
Y186900D01*
X141300D01*
Y187300D01*
X140500D01*
Y186900D01*
X140100D01*
Y186100D01*
X140500D01*
X151000Y74000D02*
Y73600D01*
X151800D01*
Y74000D01*
X152200D01*
Y74800D01*
X151800D01*
Y75200D01*
X151000D01*
Y74800D01*
X150600D01*
Y74000D01*
X151000D01*
X115100Y164957D02*
Y164557D01*
X115900D01*
Y164957D01*
X116300D01*
Y165757D01*
X115900D01*
Y166157D01*
X115100D01*
Y165757D01*
X114700D01*
Y164957D01*
X115100D01*
X161200Y106700D02*
Y106300D01*
X162000D01*
Y106700D01*
X162400D01*
Y107500D01*
X162000D01*
Y107900D01*
X161200D01*
Y107500D01*
X160800D01*
Y106700D01*
X161200D01*
X167700Y122700D02*
Y122300D01*
X168500D01*
Y122700D01*
X168900D01*
Y123500D01*
X168500D01*
Y123900D01*
X167700D01*
Y123500D01*
X167300D01*
Y122700D01*
X167700D01*
X131989Y161600D02*
Y161200D01*
X132789D01*
Y161600D01*
X133189D01*
Y162400D01*
X132789D01*
Y162800D01*
X131989D01*
Y162400D01*
X131589D01*
Y161600D01*
X131989D01*
X133500Y153800D02*
Y153400D01*
X134300D01*
Y153800D01*
X134700D01*
Y154600D01*
X134300D01*
Y155000D01*
X133500D01*
Y154600D01*
X133100D01*
Y153800D01*
X133500D01*
X127100Y147400D02*
Y147000D01*
X127900D01*
Y147400D01*
X128300D01*
Y148200D01*
X127900D01*
Y148600D01*
X127100D01*
Y148200D01*
X126700D01*
Y147400D01*
X127100D01*
X134700Y127200D02*
Y126800D01*
X135500D01*
Y127200D01*
X135900D01*
Y128000D01*
X135500D01*
Y128400D01*
X134700D01*
Y128000D01*
X134300D01*
Y127200D01*
X134700D01*
X144700Y113000D02*
Y112600D01*
X145500D01*
Y113000D01*
X145900D01*
Y113800D01*
X145500D01*
Y114200D01*
X144700D01*
Y113800D01*
X144300D01*
Y113000D01*
X144700D01*
X152600Y101600D02*
Y101200D01*
X153400D01*
Y101600D01*
X153800D01*
Y102400D01*
X153400D01*
Y102800D01*
X152600D01*
Y102400D01*
X152200D01*
Y101600D01*
X152600D01*
X128300Y110300D02*
Y109900D01*
X129100D01*
Y110300D01*
X129500D01*
Y111100D01*
X129100D01*
Y111500D01*
X128300D01*
Y111100D01*
X127900D01*
Y110300D01*
X128300D01*
X104900Y197000D02*
Y196600D01*
X105700D01*
Y197000D01*
X106100D01*
Y197800D01*
X105700D01*
Y198200D01*
X104900D01*
Y197800D01*
X104500D01*
Y197000D01*
X104900D01*
X211300Y209500D02*
Y209100D01*
X212100D01*
Y209500D01*
X212500D01*
Y210300D01*
X212100D01*
Y210700D01*
X211300D01*
Y210300D01*
X210900D01*
Y209500D01*
X211300D01*
X124500Y116372D02*
Y115972D01*
X125300D01*
Y116372D01*
X125700D01*
Y117172D01*
X125300D01*
Y117572D01*
X124500D01*
Y117172D01*
X124100D01*
Y116372D01*
X124500D01*
X86700Y106700D02*
Y106300D01*
X87500D01*
Y106700D01*
X87900D01*
Y107500D01*
X87500D01*
Y107900D01*
X86700D01*
Y107500D01*
X86300D01*
Y106700D01*
X86700D01*
X150957Y164957D02*
Y164557D01*
X151757D01*
Y164957D01*
X152157D01*
Y165757D01*
X151757D01*
Y166157D01*
X150957D01*
Y165757D01*
X150557D01*
Y164957D01*
X150957D01*
X115900Y156400D02*
Y156000D01*
X116700D01*
Y156400D01*
X117100D01*
Y157200D01*
X116700D01*
Y157600D01*
X115900D01*
Y157200D01*
X115500D01*
Y156400D01*
X115900D01*
X141000Y174200D02*
Y173800D01*
X141800D01*
Y174200D01*
X142200D01*
Y175000D01*
X141800D01*
Y175400D01*
X141000D01*
Y175000D01*
X140600D01*
Y174200D01*
X141000D01*
X139100Y199600D02*
Y199200D01*
X139900D01*
Y199600D01*
X140300D01*
Y200400D01*
X139900D01*
Y200800D01*
X139100D01*
Y200400D01*
X138700D01*
Y199600D01*
X139100D01*
X137072Y205228D02*
Y204828D01*
X137872D01*
Y205228D01*
X138272D01*
Y206028D01*
X137872D01*
Y206428D01*
X137072D01*
Y206028D01*
X136672D01*
Y205228D01*
X137072D01*
X163700Y183300D02*
Y182900D01*
X164500D01*
Y183300D01*
X164900D01*
Y184100D01*
X164500D01*
Y184500D01*
X163700D01*
Y184100D01*
X163300D01*
Y183300D01*
X163700D01*
X135300Y171500D02*
Y171100D01*
X136100D01*
Y171500D01*
X136500D01*
Y172300D01*
X136100D01*
Y172700D01*
X135300D01*
Y172300D01*
X134900D01*
Y171500D01*
X135300D01*
X71143D02*
Y171100D01*
X71943D01*
Y171500D01*
X72343D01*
Y172300D01*
X71943D01*
Y172700D01*
X71143D01*
Y172300D01*
X70743D01*
Y171500D01*
X71143D01*
X141400Y141700D02*
Y141300D01*
X142200D01*
Y141700D01*
X142600D01*
Y142500D01*
X142200D01*
Y142900D01*
X141400D01*
Y142500D01*
X141000D01*
Y141700D01*
X141400D01*
X119300Y122100D02*
Y121700D01*
X120100D01*
Y122100D01*
X120500D01*
Y122900D01*
X120100D01*
Y123300D01*
X119300D01*
Y122900D01*
X118900D01*
Y122100D01*
X119300D01*
X105500Y144400D02*
Y144000D01*
X106300D01*
Y144400D01*
X106700D01*
Y145200D01*
X106300D01*
Y145600D01*
X105500D01*
Y145200D01*
X105100D01*
Y144400D01*
X105500D01*
X101600Y153700D02*
Y153300D01*
X102400D01*
Y153700D01*
X102800D01*
Y154500D01*
X102400D01*
Y154900D01*
X101600D01*
Y154500D01*
X101200D01*
Y153700D01*
X101600D01*
X132700Y168800D02*
Y168400D01*
X133500D01*
Y168800D01*
X133900D01*
Y169600D01*
X133500D01*
Y170000D01*
X132700D01*
Y169600D01*
X132300D01*
Y168800D01*
X132700D01*
X93800Y152600D02*
Y152200D01*
X94600D01*
Y152600D01*
X95000D01*
Y153400D01*
X94600D01*
Y153800D01*
X93800D01*
Y153400D01*
X93400D01*
Y152600D01*
X93800D01*
X109200Y168000D02*
Y167600D01*
X110000D01*
Y168000D01*
X110400D01*
Y168800D01*
X110000D01*
Y169200D01*
X109200D01*
Y168800D01*
X108800D01*
Y168000D01*
X109200D01*
X115700Y149051D02*
Y148651D01*
X116500D01*
Y149051D01*
X116900D01*
Y149851D01*
X116500D01*
Y150251D01*
X115700D01*
Y149851D01*
X115300D01*
Y149051D01*
X115700D01*
X143066Y156500D02*
Y156100D01*
X143866D01*
Y156500D01*
X144266D01*
Y157300D01*
X143866D01*
Y157700D01*
X143066D01*
Y157300D01*
X142666D01*
Y156500D01*
X143066D01*
X114700Y185600D02*
Y185200D01*
X115500D01*
Y185600D01*
X115900D01*
Y186400D01*
X115500D01*
Y186800D01*
X114700D01*
Y186400D01*
X114300D01*
Y185600D01*
X114700D01*
X191300Y173400D02*
Y173000D01*
X192100D01*
Y173400D01*
X192500D01*
Y174200D01*
X192100D01*
Y174600D01*
X191300D01*
Y174200D01*
X190900D01*
Y173400D01*
X191300D01*
X146300Y142200D02*
Y141800D01*
X147100D01*
Y142200D01*
X147500D01*
Y143000D01*
X147100D01*
Y143400D01*
X146300D01*
Y143000D01*
X145900D01*
Y142200D01*
X146300D01*
X145300Y137800D02*
Y137400D01*
X146100D01*
Y137800D01*
X146500D01*
Y138600D01*
X146100D01*
Y139000D01*
X145300D01*
Y138600D01*
X144900D01*
Y137800D01*
X145300D01*
X74300Y203100D02*
Y202700D01*
X75100D01*
Y203100D01*
X75500D01*
Y203900D01*
X75100D01*
Y204300D01*
X74300D01*
Y203900D01*
X73900D01*
Y203100D01*
X74300D01*
X88400Y196900D02*
Y196500D01*
X89200D01*
Y196900D01*
X89600D01*
Y197700D01*
X89200D01*
Y198100D01*
X88400D01*
Y197700D01*
X88000D01*
Y196900D01*
X88400D01*
X139800Y134700D02*
Y134300D01*
X140600D01*
Y134700D01*
X141000D01*
Y135500D01*
X140600D01*
Y135900D01*
X139800D01*
Y135500D01*
X139400D01*
Y134700D01*
X139800D01*
X135700Y140600D02*
Y140200D01*
X136500D01*
Y140600D01*
X136900D01*
Y141400D01*
X136500D01*
Y141800D01*
X135700D01*
Y141400D01*
X135300D01*
Y140600D01*
X135700D01*
X201000Y196600D02*
Y196200D01*
X201800D01*
Y196600D01*
X202200D01*
Y197400D01*
X201800D01*
Y197800D01*
X201000D01*
Y197400D01*
X200600D01*
Y196600D01*
X201000D01*
X161900Y166800D02*
Y166400D01*
X162700D01*
Y166800D01*
X163100D01*
Y167600D01*
X162700D01*
Y168000D01*
X161900D01*
Y167600D01*
X161500D01*
Y166800D01*
X161900D01*
D93*
X56669Y174607D02*
G03*
X56669Y174607I-800J0D01*
G01*
Y148229D02*
G03*
X56669Y148229I-800J0D01*
G01*
M02*
